<svg width="416" height="287" viewBox="0 0 416 287" fill="none" xmlns="http://www.w3.org/2000/svg">
<g clip-path="url(#clip0_367_2)">
<path d="M42.0123 268.961C32.6167 263.66 24.6042 256.211 18.6274 247.22C12.6506 238.229 8.87868 227.951 7.61879 217.224C2.79128 177.077 5.50303 91.6106 111.917 76.527C186.415 65.9656 235.43 30.7242 266.581 28.6448C287.669 27.2369 336.495 30.6844 355.865 69.4877C375.234 108.291 389.931 123.907 400.857 132.861C411.783 141.816 419.507 177.923 412.807 196.235C405.019 217.512 391.361 235.581 328.782 253.987C266.203 272.394 155.449 294.781 89.3934 284.333C68.7374 281.065 53.3758 275.319 42.0123 268.961Z" fill="#F8F8FF"/>
<path d="M8.09058 223.397C8.09058 223.397 149.032 194.38 181.806 203.215C214.581 212.05 288.955 211.234 304.888 208.573C332.408 203.976 374.807 216.965 384.288 212.692C388.962 210.582 405.526 212.05 405.526 212.05C405.526 212.05 372.1 251.256 281.446 267.23C195.375 282.398 132.752 293.308 75.3976 280.05C18.0436 266.792 8.09058 223.397 8.09058 223.397Z" fill="#F5F5FC"/>
<path d="M22.136 221.283C22.136 221.283 62.9264 126.136 93.5155 118.33C124.105 110.525 112.885 120.061 144.502 107.948C176.12 95.8342 180.58 77.3081 186.505 104.306C192.43 131.304 187.458 210.946 187.458 210.946C187.458 210.946 44.57 213.493 22.136 221.283Z" fill="#E9EDFA"/>
<path d="M178.469 212.627C178.469 212.627 199.731 77.4524 237.467 78.4224C275.203 79.3925 295.079 85.4518 317.528 88.0437C339.977 90.6355 350.079 114.261 359.714 121.917C369.349 129.573 385.446 141.319 389.921 156.198C394.395 171.078 425.382 214.512 390.834 217.975C356.287 221.437 181.459 212.348 181.459 212.348" fill="#E9EDFA"/>
<path d="M80.1058 68.5972L42.8069 217.647L45.9309 217.433L80.1058 68.5972Z" fill="#BAC6F2"/>
<path d="M78.467 43.8278C78.467 43.8278 77.3645 63.4433 80.1209 68.5922C80.106 68.5922 85.018 57.1005 78.467 43.8278ZM66.3933 49.9716C66.3933 49.9716 72.5469 66.0452 76.9026 68.9455C76.9026 68.9256 77.141 57.6726 66.3933 49.9716Z" fill="#BAC6F2"/>
<path d="M91.3154 38.2361C91.3154 38.2361 79.043 59.971 80.7962 67.7117C80.7962 67.7117 94.9608 57.8567 91.3154 38.2361ZM60.6716 57.4438C60.6716 57.4438 67.0835 78.119 69.1943 83.9096C69.6909 85.2727 70.1379 85.8995 70.5303 85.9642C71.7123 86.2179 72.4027 81.7406 72.3928 78.6761C72.3779 74.5918 69.527 62.1002 60.6716 57.4438Z" fill="#BAC6F2"/>
<path d="M70.749 85.616C70.749 85.616 70.6943 85.5065 70.7142 85.6806C70.9476 87.5462 72.3929 98.8439 72.1644 100.789C71.9161 102.918 73.0435 98.028 73.0435 98.028L70.749 85.616ZM76.8876 68.7465C76.8876 68.7465 76.7088 68.652 76.7287 68.7465C77.3048 70.5324 77.3594 78.0344 77.131 79.9845C76.8827 82.1137 77.7568 78.2782 77.7568 78.2782L76.8876 68.7465ZM57.1455 65.9407C57.1455 65.9407 60.4731 93.2174 63.7759 99.3165C67.9826 107.077 68.7424 92.4314 68.1614 89.7401C67.5803 87.0487 65.4198 71.5075 57.1455 65.9407Z" fill="#BAC6F2"/>
<path d="M76.8877 68.7465C76.8877 68.7465 76.7089 68.652 76.7287 68.7465C77.3049 70.5324 77.3595 78.0344 77.131 79.9845C76.8827 82.1137 77.7568 78.2781 77.7568 78.2781L76.8877 68.7465ZM66.2294 100.575C66.2294 100.575 66.1748 100.456 66.1996 100.645C66.4479 102.724 67.9826 115.32 67.7641 117.489C67.5307 119.857 68.6233 114.425 68.6233 114.425L66.2294 100.575ZM43.999 77.3827C43.999 77.3827 53.5299 108.226 58.1885 114.694C64.1136 122.907 63.0756 105.241 61.8787 102.257C60.6817 99.2717 53.4405 82.3575 43.999 77.3827Z" fill="#BAC6F2"/>
<path d="M61.2081 116.499C61.2081 116.499 61.0342 116.002 61.0591 116.191C61.3372 118.509 63.8751 131.051 63.6318 133.468C63.3685 136.11 64.6251 130.483 64.6251 130.483L61.2081 116.499ZM37.145 92.307C37.145 92.307 49.0648 124.24 53.7483 131.11C59.7082 139.881 57.7215 120.166 55.8491 114.798C53.9072 109.336 46.6063 97.645 37.145 92.307Z" fill="#BAC6F2"/>
<path d="M56.7729 133.07C56.7729 133.07 56.5991 132.513 56.6239 132.742C56.912 135.229 59.5045 148.577 59.2711 151.149C59.0178 153.964 60.2644 148 60.2644 148L56.7729 133.07ZM32.9482 108.52C32.9482 108.52 44.868 140.453 49.5515 147.323C55.5114 156.094 53.5248 136.379 51.6524 131.011C49.7104 125.553 42.4096 113.868 32.9482 108.52Z" fill="#BAC6F2"/>
<path d="M52.5762 149.293C52.5762 149.293 52.4024 148.736 52.4272 148.965C52.7153 151.452 55.3376 165.247 55.1091 167.824C54.8558 170.64 56.2763 164.118 56.2763 164.118L52.5762 149.293ZM24.6938 122.957C24.6938 122.957 39.673 155.88 44.3615 162.755C50.3214 171.525 47.2719 149.194 45.3548 143.851C43.4377 138.393 34.1552 128.305 24.6938 122.957Z" fill="#BAC6F2"/>
<path d="M46.79 164.601C46.79 164.601 46.6708 164.302 46.7006 164.601C47.0235 167.585 50.4007 184.002 50.207 187.096C49.9935 190.479 51.6573 182.719 51.6573 182.719L46.79 164.601ZM14.0156 141.06C14.0156 141.06 19.9755 152.905 27.1472 162.72C31.9648 169.312 38.1134 174.336 40.4576 176.724C47.9075 184.291 40.3732 163.7 37.5572 158.78C34.6716 153.746 24.2815 144.637 14.0156 141.06Z" fill="#BAC6F2"/>
<path d="M43.2341 177.948C43.2341 177.948 43.1149 177.649 43.1447 177.948C43.4675 180.933 47.0832 198.673 46.7504 201.757C46.671 202.488 48.2404 196.195 48.2404 196.195L43.2341 177.948ZM9.73456 158.258C9.73456 158.258 16.4196 171.585 24.4207 182.669C29.7896 190.131 36.5987 195.807 39.2012 198.514C47.4507 207.08 38.938 183.942 35.7842 178.396C32.556 172.714 21.0385 162.387 9.73456 158.258ZM-0.00488281 186.828C-0.00488281 186.828 13.4049 194.409 23.0599 201.752C34.3787 210.369 36.3305 211.304 39.5588 212.239C49.7899 215.199 32.9831 193.524 28.2152 190.529C23.338 187.46 11.1401 184.634 -0.00488281 186.828Z" fill="#BAC6F2"/>
<path d="M42.4842 200.484C42.4211 200.273 42.3431 200.067 42.2508 199.867C42.4792 201.414 45.1314 208.364 44.6993 209.985C44.6 210.369 45.5188 207.16 45.5188 207.16L42.4842 200.484ZM41.5008 211.368C41.5008 211.368 41.2724 211 41.2922 211.07C41.4661 211.831 43.8748 215.189 43.3881 216.01C43.2739 216.204 44.302 214.577 44.302 214.577L41.5008 211.368Z" fill="#BAC6F2"/>
<path d="M89.5324 50.877C89.5324 50.877 82.8076 69.0798 79.2019 73.1989C79.2019 73.1989 80.5628 61.6176 89.5324 50.877ZM94.499 59.1103C94.499 59.1103 84.7247 72.5024 81.0048 74.2137C81.0048 74.2137 85.1022 63.8413 94.499 59.1103Z" fill="#BAC6F2"/>
<path d="M83.8656 42.9821C83.8656 42.9821 83.0908 65.5278 79.1126 72.2437C79.1126 72.2437 74.2751 60.16 83.8656 42.9821ZM95.1347 67.1894C95.1347 67.1894 83.4732 84.7354 80.0165 89.5759C79.202 90.7151 78.7053 91.1777 78.4321 91.1678C77.6226 91.1678 78.8891 86.8994 80.0512 84.0937C81.6058 80.3675 88.0425 69.5375 95.1347 67.1894Z" fill="#BAC6F2"/>
<path d="M78.4372 90.8146C78.4372 90.8146 78.5117 90.725 78.4372 90.8793C77.5929 92.5359 72.4773 102.57 71.8713 104.401C71.2207 106.391 72.368 101.684 72.368 101.684L78.4372 90.8146ZM81.0844 74.0346C81.0844 74.0346 81.2284 73.9899 81.1886 74.0346C80.1655 75.5271 77.3048 82.4022 76.7187 84.2379C76.0681 86.2278 76.982 82.5415 76.982 82.5415L81.0844 74.0346ZM94.067 75.7261C94.067 75.7261 81.7846 99.9831 77.4737 104.853C72.0104 111.052 77.0614 97.4708 78.4322 95.1377C79.803 92.8045 86.9697 79.0393 94.067 75.7261Z" fill="#BAC6F2"/>
<path d="M81.0842 74.0346C81.0842 74.0346 81.2282 73.9899 81.1885 74.0346C80.1654 75.5271 77.3046 82.4022 76.7186 84.2379C76.068 86.2278 76.9818 82.5415 76.9818 82.5415L81.0842 74.0346ZM75.5316 105.48C75.5316 105.48 75.6111 105.381 75.5316 105.555C74.5979 107.405 68.926 118.609 68.2406 120.638C67.4907 122.857 68.8764 117.654 68.8764 117.654L75.5316 105.48ZM97.6974 89.0286C97.6974 89.0286 80.3144 115.231 75.0697 120.136C68.3946 126.379 75.6756 110.435 77.553 107.948C79.4303 105.46 90.1234 91.5558 97.6974 89.0286Z" fill="#BAC6F2"/>
<path d="M72.5615 121.161C72.5615 121.161 72.8645 120.723 72.7652 120.912C71.7222 122.977 65.4693 133.911 64.6995 136.18C63.8651 138.667 65.1961 133.254 65.1961 133.254L72.5615 121.161ZM96.2123 104.182C96.2123 104.182 76.9768 130.852 71.5583 136.15C64.6498 142.896 73.2767 125.245 76.4355 120.758C79.6737 116.186 88.4844 107.037 96.2123 104.182Z" fill="#BAC6F2"/>
<path d="M68.9956 137.279C68.9956 137.279 69.3085 136.806 69.2091 137.01C68.1016 139.209 61.501 150.89 60.6716 153.298C59.7627 155.929 61.2626 150.204 61.2626 150.204L68.9956 137.279ZM92.6365 119.937C92.6365 119.937 73.4059 146.607 67.9824 151.905C61.0739 158.651 69.7008 141 72.8596 136.513C76.0978 131.921 84.9234 122.792 92.6365 119.937Z" fill="#BAC6F2"/>
<path d="M65.4198 153.034C65.4198 153.034 65.7327 152.562 65.6334 152.766C64.5258 154.964 57.7415 167.048 56.9071 169.456C55.9982 172.088 57.5974 165.809 57.5974 165.809L65.4198 153.034ZM92.1797 134.941C92.1797 134.941 70.7291 161.854 65.3006 167.158C58.3921 173.903 68.653 154.109 71.8118 149.621C75.045 145.04 84.4269 137.796 92.1797 134.941Z" fill="#BAC6F2"/>
<path d="M63.1451 168.302C63.1451 168.302 63.3288 168.053 63.2096 168.302C61.8935 170.958 53.6639 185.266 52.6159 188.141C51.4686 191.305 53.3857 183.843 53.3857 183.843L63.1451 168.302ZM91.8071 153.83C91.8071 153.83 83.7464 163.387 75.7154 170.829C70.3217 175.804 64.7195 179.097 62.4001 180.779C55.0644 186.102 67.3666 168.874 70.9127 164.974C74.5532 160.959 84.2629 154.88 91.8071 153.83Z" fill="#BAC6F2"/>
<path d="M60.2644 181.296C60.2644 181.296 60.4482 181.047 60.329 181.296C59.0128 183.952 50.1425 199.424 49.179 202.319C48.9506 203.006 50.376 196.907 50.376 196.907L60.2644 181.296ZM87.9034 170.496C87.9034 170.496 78.8443 181.256 69.835 189.678C63.7857 195.335 57.5278 199.081 54.9353 200.996C46.7255 207.06 60.5872 187.708 64.5803 183.311C68.6877 178.808 79.5347 171.834 87.9034 170.496ZM83.0312 198.767C83.0312 198.767 72.0749 202.812 63.4778 207.453C53.3956 212.901 51.8659 213.333 49.5714 213.493C42.2805 213.99 60.5922 197.777 64.6052 196.081C68.6977 194.29 77.1309 194.345 83.0312 198.767Z" fill="#BAC6F2"/>
<path d="M52.2285 202.09C52.2285 202.09 52.6705 201.449 52.601 201.593C51.8808 202.961 47.6593 208.752 47.3066 210.329C47.2222 210.702 47.8778 207.563 47.8778 207.563L52.2285 202.09ZM48.7221 212.269C48.7221 212.269 49.0002 211.98 48.9605 212.04C48.5681 212.697 45.8514 215.254 45.8315 216.109V214.617L48.7221 212.269Z" fill="#BAC6F2"/>
<path d="M166.847 38.2063L111.634 212.692L116.223 212.632L166.847 38.2063Z" fill="#90F577"/>
<path d="M164.389 8.91977C164.389 8.91977 162.74 32.1172 166.872 38.2063C166.847 38.2063 174.193 24.6152 164.389 8.91977ZM146.34 16.1929C146.34 16.1929 155.538 35.2015 162.054 38.6292C162.054 38.6192 162.402 25.2918 146.34 16.1929Z" fill="#90F577"/>
<path d="M183.609 2.30829C183.609 2.30829 165.263 28.003 167.865 37.1666C167.865 37.1666 189.062 25.5107 183.609 2.30829ZM137.788 25.0231C137.788 25.0231 147.378 49.4692 150.532 56.3195C151.272 57.9313 151.942 58.6526 152.518 58.7521C154.287 59.0506 155.32 53.7774 155.305 50.1358C155.29 45.2954 151.014 30.5252 137.788 25.0231Z" fill="#90F577"/>
<path d="M152.856 58.3342C152.856 58.3342 152.777 58.2049 152.807 58.4089C153.159 60.6127 155.315 73.97 154.972 76.2733C154.6 78.7905 156.288 73.0098 156.288 73.0098L152.856 58.3342ZM162.035 38.3854C162.035 38.3854 161.766 38.2759 161.796 38.3555C162.66 40.4698 162.745 49.3399 162.402 51.6432C162.03 54.1604 163.336 49.6284 163.336 49.6284L162.035 38.3854ZM132.508 35.0622C132.508 35.0622 137.475 67.3187 142.441 74.5272C148.729 83.7056 149.891 66.3834 149.002 63.2046C148.113 60.0257 144.89 41.6538 132.508 35.0622Z" fill="#90F577"/>
<path d="M162.034 38.3854C162.034 38.3854 161.766 38.276 161.796 38.3555C162.66 40.4698 162.745 49.3399 162.402 51.6432C162.029 54.1604 163.336 49.6284 163.336 49.6284L162.034 38.3854ZM146.092 76.0246C146.092 76.0246 146.007 75.8803 146.042 76.1092C146.415 78.5667 148.704 93.4612 148.386 96.0083C148.039 98.8091 149.668 92.3817 149.668 92.3817L146.092 76.0246ZM112.855 48.5837C112.855 48.5837 127.11 85.0787 134.073 92.71C142.933 102.421 141.383 81.5416 139.591 77.9996C137.798 74.4575 126.97 54.4987 112.855 48.5837Z" fill="#90F577"/>
<path d="M138.562 94.8541C138.562 94.8541 138.304 94.2373 138.344 94.491C138.761 97.2321 142.551 112.062 142.188 114.922C141.791 118.047 143.678 111.44 143.678 111.44L138.562 94.8541ZM102.604 66.2392C102.604 66.2392 120.425 103.998 127.437 112.151C136.377 122.524 133.397 99.1822 130.576 92.8592C127.666 86.387 116.754 72.5621 102.604 66.2392Z" fill="#90F577"/>
<path d="M131.952 114.45C131.952 114.45 131.689 113.793 131.729 114.062C132.161 116.982 136.035 132.787 135.702 135.836C135.324 139.164 137.192 132.11 137.192 132.11L131.952 114.45ZM96.3467 85.417C96.3467 85.417 114.167 123.176 121.18 131.329C130.119 141.702 127.139 118.36 124.318 112.037C121.393 105.565 110.477 91.7399 96.3467 85.417Z" fill="#90F577"/>
<path d="M125.679 133.628C125.679 133.628 125.416 132.971 125.456 133.24C125.888 136.16 129.811 152.497 129.464 155.541C129.086 158.87 131.212 151.159 131.212 151.159L125.679 133.628ZM83.9849 102.49C83.9849 102.49 106.384 141.423 113.392 149.577C122.332 159.949 117.748 133.538 114.912 127.215C112.016 120.743 98.1346 108.813 83.9849 102.49Z" fill="#90F577"/>
<path d="M117.027 151.736C117.027 151.736 116.849 151.383 116.893 151.706C117.39 155.223 122.426 174.645 122.138 178.306C121.82 182.286 124.308 173.132 124.308 173.132L117.027 151.736ZM68.0371 123.902C68.0371 123.902 76.9273 137.906 87.6551 149.517C94.8616 157.312 104.045 163.252 107.561 166.073C118.671 175.028 107.432 150.651 103.22 144.856C98.9044 138.896 83.3639 128.125 68.0371 123.902Z" fill="#90F577"/>
<path d="M111.708 167.516C111.708 167.516 111.529 167.163 111.574 167.486C112.071 171.003 117.464 191.997 116.968 195.643C116.854 196.504 119.193 189.067 119.193 189.067L111.708 167.516ZM61.6154 144.229C61.6154 144.229 71.6131 159.994 83.5775 173.083C91.6085 181.883 101.79 188.619 105.684 191.818C118.016 201.946 105.286 174.585 100.573 168.028C95.7407 161.332 78.5166 149.114 61.6154 144.229ZM47.0583 178.018C47.0583 178.018 67.1183 186.972 81.5462 195.668C98.4673 205.856 101.413 206.961 106.22 208.065C121.517 211.548 96.3863 185.937 89.2543 182.395C81.9435 178.764 63.7162 175.421 47.0583 178.018Z" fill="#90F577"/>
<path d="M110.586 194.166C110.586 194.166 110.208 193.265 110.238 193.434C110.576 195.26 114.544 203.483 113.903 205.399C113.75 205.851 115.13 202.056 115.13 202.056L110.586 194.166ZM109.116 207.035C109.116 207.035 108.778 206.598 108.803 206.682C109.061 207.583 112.662 211.553 111.942 212.523C111.773 212.751 113.308 210.831 113.308 210.831L109.116 207.035Z" fill="#90F577"/>
<path d="M180.942 17.2575C180.942 17.2575 170.885 38.7784 165.496 43.6537C165.491 43.6537 167.532 29.9531 180.942 17.2575ZM188.367 26.9882C188.367 26.9882 173.756 42.8229 168.188 44.8476C168.188 44.8526 174.322 32.6097 188.367 26.9882Z" fill="#90F577"/>
<path d="M172.474 7.91983C172.474 7.91983 171.312 34.5996 165.382 42.5244C165.382 42.5244 158.126 28.2368 172.474 7.91983ZM189.326 36.5397C189.326 36.5397 171.883 57.2896 166.718 63.0255C165.501 64.3736 164.731 64.9209 164.349 64.9109C163.137 64.8811 165.034 59.8615 166.772 56.5433C169.092 52.1207 178.712 39.3206 189.326 36.5397Z" fill="#90F577"/>
<path d="M164.349 64.4731C164.349 64.4731 164.458 64.3686 164.349 64.5527C163.087 66.5128 155.409 78.3727 154.53 80.5417C153.537 82.9097 155.29 77.328 155.29 77.328L164.349 64.4731ZM168.312 44.6387C168.312 44.6387 168.526 44.5839 168.471 44.6387C166.941 46.4246 162.665 54.5335 161.776 56.7025C160.783 59.0705 162.174 54.7126 162.174 54.7126L168.312 44.6387ZM187.732 46.6385C187.732 46.6385 169.355 75.3231 162.938 81.0839C154.768 88.4118 162.323 72.3532 164.374 69.5971C166.425 66.8411 177.113 50.5587 187.732 46.6385Z" fill="#90F577"/>
<path d="M168.312 44.6387C168.312 44.6387 168.526 44.5839 168.471 44.6387C166.941 46.4246 162.665 54.5335 161.776 56.7025C160.783 59.0705 162.174 54.7126 162.174 54.7126L168.312 44.6387ZM160.008 81.8251C160.008 81.8251 160.127 81.7107 160.008 81.9097C158.613 84.0986 150.13 97.3315 149.082 99.7493C147.959 102.376 150.035 96.2122 150.035 96.2122L160.008 81.8251ZM193.155 62.3738C193.155 62.3738 167.155 93.3567 159.313 99.1573C149.335 106.54 160.222 87.6854 162.988 84.7304C165.754 81.7754 181.826 65.3586 193.155 62.3738Z" fill="#90F577"/>
<path d="M155.568 100.351C155.568 100.351 156.02 99.8538 155.876 100.058C154.316 102.495 144.949 115.43 143.817 118.111C142.565 121.041 144.587 114.629 144.587 114.629L155.568 100.351ZM190.935 80.288C190.935 80.288 162.178 111.823 154.063 118.096C143.733 126.056 156.636 105.202 161.359 99.8936C166.196 94.4561 179.378 83.6609 190.935 80.288Z" fill="#90F577"/>
<path d="M150.234 119.425C150.234 119.425 150.706 118.867 150.552 119.106C148.898 121.708 139.029 135.523 137.783 138.369C136.427 141.478 138.672 134.707 138.672 134.707L150.234 119.425ZM185.586 98.9185C185.586 98.9185 156.829 130.454 148.714 136.727C138.384 144.686 151.287 123.832 156.01 118.524C160.852 113.092 174.029 102.296 185.586 98.9185Z" fill="#90F577"/>
<path d="M144.89 138.075C144.89 138.075 145.362 137.518 145.208 137.757C143.554 140.358 133.402 154.646 132.161 157.492C130.805 160.601 133.194 153.178 133.194 153.178L144.89 138.075ZM184.906 116.683C184.906 116.683 152.827 148.522 144.711 154.775C134.381 162.735 149.722 139.354 154.446 134.04C159.278 128.588 173.329 120.036 184.906 116.683Z" fill="#90F577"/>
<path d="M141.483 156.114C141.483 156.114 141.761 155.82 141.577 156.114C139.591 159.253 127.303 176.172 125.739 179.575C124.025 183.291 126.896 174.466 126.896 174.466L141.483 156.114ZM184.344 138.995C184.344 138.995 172.291 150.298 160.281 159.098C152.216 165.008 143.837 168.874 140.37 170.864C129.399 177.162 147.785 156.785 153.105 152.174C158.548 147.452 173.065 140.244 184.344 138.995Z" fill="#90F577"/>
<path d="M137.177 171.476C137.177 171.476 137.455 171.182 137.271 171.476C135.284 174.615 122.039 192.912 120.598 196.35C120.256 197.16 122.386 189.947 122.386 189.947L137.177 171.476ZM178.523 158.7C178.523 158.7 164.975 171.426 151.505 181.385C142.466 188.072 133.099 192.504 129.23 194.787C116.958 201.956 137.673 179.077 143.633 173.893C149.772 168.536 165.993 160.287 178.523 158.7ZM171.218 192.126C171.218 192.126 154.828 196.912 141.979 202.399C126.906 208.841 124.596 209.364 121.169 209.538C110.243 210.13 137.653 190.952 143.648 188.927C149.792 186.853 162.402 186.907 171.218 192.126Z" fill="#90F577"/>
<path d="M125.153 196.066C125.329 195.853 125.517 195.648 125.714 195.454C124.636 197.071 118.324 203.911 117.797 205.787C117.673 206.229 118.646 202.518 118.646 202.518L125.153 196.066ZM119.913 208.1C119.913 208.1 120.325 207.757 120.271 207.831C119.684 208.607 115.617 211.632 115.592 212.647V210.866L119.913 208.1Z" fill="#90F577"/>
<path d="M257.745 37.1218L286.288 217.368L282.598 216.761L257.745 37.1218Z" fill="#90F577"/>
<path d="M262.334 8.06909C262.334 8.06909 261.564 31.356 257.745 37.1218C257.76 37.1218 253.121 22.9934 262.334 8.06909ZM276.017 16.6904C276.017 16.6904 267.003 34.9677 261.52 37.8879C261.515 37.9028 262.424 24.5704 276.017 16.6904Z" fill="#90F577"/>
<path d="M247.633 0C247.633 0 259.915 27.0529 257.015 36.0025C257.015 36.0025 241.221 22.7497 247.633 0ZM282.022 26.1773C282.022 26.1773 272.208 49.8523 269.109 56.4538C268.374 58.0059 267.778 58.6726 267.301 58.7273C265.87 58.8914 265.523 53.5286 265.86 49.907C266.293 45.0864 271.016 30.6645 282.022 26.1773Z" fill="#90F577"/>
<path d="M267.057 58.2895C267.057 58.2895 267.132 58.1701 267.087 58.3691C266.591 60.5431 263.7 73.7163 263.765 76.0445C263.834 78.5866 263.01 72.6865 263.01 72.6865L267.057 58.2895ZM261.554 37.669C261.554 37.669 261.778 37.5795 261.743 37.669C260.869 39.7137 260.005 48.5638 260.074 50.892C260.144 53.4341 259.513 48.8076 259.513 48.8076L261.554 37.669ZM285.319 36.5895C285.319 36.5895 278.476 68.4281 273.896 75.2386C268.076 83.9196 268.711 66.5377 269.695 63.4334C270.678 60.3292 274.89 42.2409 285.319 36.5895Z" fill="#90F577"/>
<path d="M261.554 37.669C261.554 37.669 261.778 37.5795 261.743 37.669C260.869 39.7137 260.005 48.5638 260.074 50.892C260.144 53.4341 259.513 48.8076 259.513 48.8076L261.554 37.669ZM270.852 76.4673C270.852 76.4673 270.931 76.333 270.882 76.5569C270.385 78.9846 267.211 93.6801 267.236 96.262C267.261 99.0877 266.541 92.5458 266.541 92.5458L270.852 76.4673ZM299.727 51.6084C299.727 51.6084 285.126 86.9591 278.908 94.0482C270.996 103.067 274.1 82.3376 275.843 78.9398C277.587 75.542 287.982 56.414 299.727 51.6084Z" fill="#90F577"/>
<path d="M275.143 95.8441C275.143 95.8441 275.406 95.2471 275.352 95.5008C274.775 98.2071 270.435 112.724 270.464 115.609C270.499 118.758 269.595 111.997 269.595 111.997L275.143 95.8441ZM306.298 70.015C306.298 70.015 288.751 106.356 282.459 113.962C274.443 123.638 278.873 100.555 281.694 94.4611C284.579 88.2178 294.483 75.2485 306.298 70.015Z" fill="#90F577"/>
<path d="M278.649 115.917C278.649 115.917 278.918 115.281 278.863 115.549C278.257 118.435 273.762 133.921 273.762 136.986C273.762 140.334 272.928 133.155 272.928 133.155L278.649 115.917ZM309.566 89.6455C309.566 89.6455 292.029 125.986 285.722 133.598C277.706 143.274 282.136 120.191 284.957 114.097C287.843 107.848 297.756 94.879 309.566 89.6455Z" fill="#90F577"/>
<path d="M281.917 135.543C281.917 135.543 282.186 134.906 282.131 135.175C281.525 138.06 276.946 154.079 276.946 157.133C276.946 160.481 275.953 152.621 275.953 152.621L281.917 135.543ZM317.856 107.639C317.856 107.639 296.564 144.801 290.261 152.412C282.245 162.088 288.235 136.065 291.056 129.971C293.932 123.718 306.035 112.873 317.856 107.639Z" fill="#90F577"/>
<path d="M287.172 154.283C287.172 154.283 287.346 153.945 287.281 154.283C286.581 157.765 280.825 176.764 280.73 180.44C280.626 184.46 279.469 175.107 279.469 175.107L287.172 154.283ZM328.623 130.235C328.623 130.235 320.289 143.537 310.743 154.313C304.317 161.546 296.479 166.75 293.44 169.327C283.81 177.411 294.93 153.959 298.789 148.472C302.727 142.846 316.043 133.279 328.623 130.235Z" fill="#90F577"/>
<path d="M289.988 170.446C289.988 170.446 290.162 170.108 290.097 170.446C289.397 173.928 283.224 194.469 283.288 198.145C283.288 199.016 282.106 191.41 282.106 191.41L289.988 170.446ZM331.891 151.009C331.891 151.009 322.529 165.984 311.851 178.157C304.674 186.33 296.003 192.3 292.601 195.185C281.893 204.354 294.458 178.008 298.794 171.804C303.234 165.486 318.019 154.606 331.891 151.009ZM340.434 185.868C340.434 185.868 323.686 193.285 311.439 200.857C297.075 209.737 294.652 210.617 290.713 211.353C278.242 213.677 300.512 190.012 306.497 187.017C312.636 183.947 327.426 182.007 340.434 185.868Z" fill="#90F577"/>
<path d="M288.493 197.136C288.59 196.892 288.705 196.656 288.836 196.429C288.404 198.23 284.515 206.13 284.862 208.1C284.942 208.568 284.187 204.672 284.187 204.672L288.493 197.136ZM288.508 210.1C288.508 210.1 288.816 209.687 288.791 209.772C288.503 210.647 285.285 214.338 285.776 215.363C285.891 215.607 284.843 213.567 284.843 213.567L288.508 210.1Z" fill="#90F577"/>
<path d="M248.418 15.1283C248.418 15.1283 254.487 37.3855 258.351 42.6637C258.331 42.6637 257.939 28.8288 248.418 15.1283ZM241.644 24.2819C241.644 24.2819 251.84 41.1962 256.081 43.6537C256.081 43.6537 252.297 30.9382 241.644 24.2819Z" fill="#90F577"/>
<path d="M255.987 6.4523C255.987 6.4523 254.497 33.1569 258.54 41.5444C258.535 41.5643 265.567 27.8339 255.987 6.4523ZM240.024 33.7439C240.024 33.7439 252.029 55.7922 255.624 61.9161C256.469 63.3538 257.015 63.9558 257.338 63.9807C258.301 64.0453 257.244 58.8865 256.161 55.439C254.711 50.8423 248.214 37.3308 240.024 33.7439Z" fill="#90F577"/>
<path d="M257.378 63.5379C257.378 63.5379 257.298 63.4285 257.378 63.6175C258.207 65.6671 263.238 78.0991 263.75 80.3328C264.311 82.7704 263.432 77.0693 263.432 77.0693L257.378 63.5379ZM256.002 43.4298C256.002 43.4298 255.838 43.3602 255.878 43.4298C256.931 45.3302 259.608 53.7525 260.119 55.9862C260.68 58.4238 259.985 53.9565 259.985 53.9565L256.002 43.4298ZM240.377 43.9472C240.377 43.9472 252.411 73.9899 257 80.2333C262.836 88.1929 258.272 71.5672 256.891 68.652C255.51 65.7368 248.477 48.6733 240.377 43.9472Z" fill="#90F577"/>
<path d="M256.002 43.4298C256.002 43.4298 255.838 43.3602 255.878 43.4298C256.931 45.3302 259.608 53.7525 260.119 55.9862C260.68 58.4238 259.985 53.9565 259.985 53.9565L256.002 43.4298ZM259.25 81.1984C259.25 81.1984 259.166 81.074 259.25 81.2829C260.164 83.5713 265.707 97.451 266.322 99.9284C266.978 102.635 265.88 96.3217 265.88 96.3217L259.25 81.1984ZM234.67 59.2397C234.67 59.2397 252.55 92.1628 258.272 98.5405C265.543 106.674 258.579 87.0139 256.638 83.8698C254.696 80.7258 243.407 63.0902 234.67 59.2397Z" fill="#90F577"/>
<path d="M261.142 100.033C261.142 100.033 260.829 99.4807 260.924 99.7145C261.942 102.267 268.22 115.897 268.87 118.658C269.6 121.678 268.567 115.146 268.567 115.146L261.142 100.033ZM234.829 77.2981C234.829 77.2981 254.86 110.982 260.75 117.858C268.244 126.613 259.861 104.784 256.583 99.1275C253.221 93.3368 243.715 81.5516 234.829 77.2981Z" fill="#90F577"/>
<path d="M263.67 119.484C263.67 119.484 263.347 118.892 263.447 119.146C264.529 121.867 271.135 136.413 271.89 139.354C272.689 142.562 271.512 135.632 271.512 135.632L263.67 119.484ZM237.397 96.3117C237.397 96.3117 257.427 129.996 263.317 136.871C270.812 145.627 262.429 123.797 259.151 118.141C255.803 112.35 246.292 100.565 237.397 96.3117Z" fill="#90F577"/>
<path d="M266.253 138.498C266.253 138.498 265.93 137.906 266.029 138.16C267.112 140.881 273.901 155.925 274.631 158.865C275.431 162.073 274.194 154.477 274.194 154.477L266.253 138.498ZM236.364 114.082C236.364 114.082 259.012 148.308 264.902 155.188C272.396 163.944 262.299 139.398 259.022 133.742C255.659 127.946 245.249 118.33 236.364 114.082Z" fill="#90F577"/>
<path d="M267.34 156.785C267.34 156.785 267.147 156.472 267.266 156.785C268.552 160.069 276.812 177.903 277.755 181.42C278.783 185.261 277.293 176.232 277.293 176.232L267.34 156.785ZM234.804 136.418C234.804 136.418 243.372 148.627 252.133 158.307C258.013 164.824 264.331 169.327 266.903 171.575C275.063 178.699 262.27 156.949 258.46 151.945C254.557 146.836 243.66 138.528 234.804 136.418Z" fill="#90F577"/>
<path d="M269.387 172.451C269.387 172.451 269.193 172.137 269.312 172.451C270.599 175.734 279.499 195.016 280.338 198.548C280.537 199.384 279.489 192.017 279.489 192.017L269.387 172.451ZM237.665 156.541C237.665 156.541 247.295 170.282 257.109 181.256C263.7 188.624 270.738 193.763 273.618 196.32C282.732 204.414 268.309 179.988 264.028 174.341C259.642 168.555 247.489 159.083 237.665 156.541ZM240.481 190.469C240.481 190.469 253.077 196.499 262.801 202.961C274.224 210.543 275.982 211.229 278.694 211.682C287.311 213.105 267.271 191.867 262.672 189.385C257.984 186.828 247.961 185.932 240.481 190.469Z" fill="#90F577"/>
<path d="M276.737 197.922C276.737 197.922 276.28 197.111 276.35 197.27C277.06 198.966 281.466 206.284 281.714 208.214C281.773 208.667 281.331 204.886 281.331 204.886L276.737 197.922ZM279.827 210.344C279.827 210.344 279.529 209.971 279.563 210.045C279.956 210.866 282.921 214.194 282.851 215.209C282.851 215.448 283.025 213.433 283.025 213.433L279.827 210.344Z" fill="#90F577"/>
<path d="M396.903 80.6909L368.107 219.457L371.266 218.94L396.903 80.6909Z" fill="#BAC6F2"/>
<path d="M393.72 58.4487C393.72 58.4487 393.794 76.3181 396.903 80.6909C396.903 80.6909 401.195 69.7763 393.72 58.4487ZM381.855 65.2592C381.855 65.2592 389.076 79.1886 393.67 81.3377C393.67 81.3625 393.233 71.1145 381.855 65.2592Z" fill="#BAC6F2"/>
<path d="M406.439 52.0511C406.439 52.0511 395.304 72.99 397.554 79.8203C397.554 79.8203 411.331 69.423 406.439 52.0511ZM376.506 72.6169C376.506 72.6169 384.273 90.6604 386.762 95.6849C387.348 96.8639 387.839 97.3714 388.252 97.4062C389.468 97.5107 389.896 93.3915 389.697 90.6156C389.429 86.9194 385.763 75.8903 376.506 72.6169Z" fill="#BAC6F2"/>
<path d="M388.445 97.0679C388.445 97.0679 388.386 96.9734 388.416 97.1276C388.768 98.7892 390.899 108.863 390.805 110.649C390.68 112.599 391.53 108.062 391.53 108.062L388.445 97.0679ZM393.645 81.1586C393.645 81.1586 393.457 81.0939 393.482 81.1586C394.177 82.7157 394.688 89.5013 394.574 91.2872C394.45 93.2373 395.106 89.6804 395.106 89.6804L393.645 81.1586ZM373.441 80.671C373.441 80.671 378.473 105.013 382.197 110.186C386.936 116.773 386.831 103.436 386.066 101.068C385.302 98.6996 382.178 84.8449 373.441 80.671Z" fill="#BAC6F2"/>
<path d="M393.645 81.1586C393.645 81.1586 393.457 81.0939 393.481 81.1586C394.177 82.7157 394.688 89.5013 394.574 91.2872C394.45 93.2373 395.106 89.6804 395.106 89.6804L393.645 81.1586ZM384.765 111.072C384.765 111.072 384.701 110.967 384.735 111.142C385.113 112.997 387.432 124.235 387.348 126.22C387.253 128.389 388.033 123.355 388.033 123.355L384.765 111.072ZM360.796 92.3817C360.796 92.3817 372.349 119.32 377.464 124.678C383.975 131.493 381.85 115.624 380.444 113.037C379.039 110.45 370.675 95.9088 360.796 92.3817Z" fill="#BAC6F2"/>
<path d="M380.638 126.006C380.638 126.006 380.429 125.553 380.469 125.743C380.891 127.812 384.229 138.896 384.129 141.115C384.02 143.532 384.959 138.334 384.959 138.334L380.638 126.006ZM354.742 106.605C354.742 106.605 368.778 134.264 373.953 140.02C380.539 147.338 377.34 129.678 375.09 125.036C372.791 120.285 364.67 110.46 354.742 106.605Z" fill="#BAC6F2"/>
<path d="M377.141 141.468C377.141 141.468 376.928 140.97 376.973 141.189C377.415 143.393 380.856 155.223 380.782 157.576C380.697 160.148 381.586 154.626 381.586 154.626L377.141 141.468ZM351.469 121.718C351.469 121.718 365.505 149.378 370.68 155.134C377.266 162.451 374.067 144.791 371.817 140.149C369.508 135.399 361.397 125.578 351.469 121.718Z" fill="#BAC6F2"/>
<path d="M373.868 156.581C373.868 156.581 373.655 156.084 373.7 156.303C374.142 158.506 377.643 170.729 377.569 173.092C377.484 175.664 378.527 169.61 378.527 169.61L373.868 156.581ZM343.975 135.647C343.975 135.647 361.179 163.884 366.354 169.64C372.94 176.958 368.485 157.064 366.24 152.422C363.93 147.666 353.903 139.503 343.975 135.647Z" fill="#BAC6F2"/>
<path d="M368.927 171.038C368.927 171.038 368.788 170.779 368.832 171.038C369.329 173.699 373.769 188.211 373.759 191.032C373.759 194.116 374.966 186.922 374.966 186.922L368.927 171.038ZM334.245 153.144C334.245 153.144 341.01 163.242 348.887 171.381C354.176 176.853 360.722 180.754 363.245 182.669C371.246 188.743 362.366 170.894 359.207 166.75C355.969 162.451 344.869 155.308 334.245 153.144Z" fill="#BAC6F2"/>
<path d="M366.126 183.485C366.126 183.485 365.987 183.226 366.031 183.485C366.528 186.146 371.286 201.832 371.142 204.657C371.107 205.324 372.314 199.469 372.314 199.469L366.126 183.485ZM330.937 169.143C330.937 169.143 338.536 180.51 347.327 189.708C353.232 195.887 360.484 200.334 363.29 202.513C372.18 209.408 362.132 189.35 358.596 184.664C354.971 179.863 342.659 171.71 330.937 169.143ZM322.792 196.011C322.792 196.011 336.867 201.484 347.128 207.12C359.138 213.741 361.179 214.383 364.511 214.896C375.075 216.512 356.699 198.643 351.678 196.429C346.508 194.161 333.962 192.872 322.792 196.011Z" fill="#BAC6F2"/>
<path d="M366.737 203.956C366.737 203.956 366.434 203.294 366.463 203.419C366.786 204.797 369.9 210.806 369.568 212.324C369.488 212.682 370.228 209.682 370.228 209.682L366.737 203.956ZM366.399 213.911C366.399 213.911 366.146 213.597 366.165 213.662C366.389 214.333 369.036 217.144 368.594 217.915C368.49 218.104 369.433 216.527 369.433 216.527L366.399 213.911Z" fill="#BAC6F2"/>
<path d="M405.391 63.6772C405.391 63.6772 399.67 80.8501 396.263 84.9493C396.268 84.9493 396.943 74.3282 405.391 63.6772ZM410.934 70.607C410.934 70.607 401.83 83.7405 398.155 85.6757C398.155 85.6806 401.686 75.8903 410.934 70.607Z" fill="#BAC6F2"/>
<path d="M399.168 57.1204C399.168 57.1204 399.749 77.6016 396.124 84.0987C396.119 84.0937 390.472 73.6616 399.168 57.1204ZM412.076 77.8553C412.076 77.8553 401.304 94.9487 398.095 99.6946C397.341 100.809 396.859 101.282 396.605 101.301C395.781 101.366 396.814 97.3913 397.822 94.7298C399.143 91.1778 405.014 80.7208 412.076 77.8553Z" fill="#BAC6F2"/>
<path d="M396.561 100.963C396.561 100.963 396.63 100.879 396.561 101.023C395.806 102.61 391.212 112.221 390.715 113.957C390.179 115.838 391.068 111.47 391.068 111.47L396.561 100.963ZM398.229 85.5115C398.229 85.5115 398.374 85.4568 398.339 85.5115C397.395 87.0039 394.907 93.4712 394.415 95.2123C393.879 97.0928 394.579 93.6503 394.579 93.6503L398.229 85.5115ZM411.51 85.6906C411.51 85.6906 400.514 108.923 396.451 113.773C391.281 119.952 395.587 107.137 396.834 104.883C398.08 102.63 404.507 89.4267 411.51 85.6906Z" fill="#BAC6F2"/>
<path d="M398.229 85.5115C398.229 85.5115 398.373 85.4568 398.339 85.5115C397.395 87.0039 394.907 93.4712 394.415 95.2123C393.879 97.0928 394.579 93.6503 394.579 93.6503L398.229 85.5115ZM394.504 114.544C394.504 114.544 394.579 114.445 394.504 114.609C393.67 116.38 388.594 127.106 388.018 129.036C387.392 131.125 388.485 126.26 388.485 126.26L394.504 114.544ZM416 97.3565C416 97.3565 399.948 122.877 394.922 127.862C388.53 134.205 394.947 119.017 396.675 116.579C398.403 114.141 408.466 100.426 416 97.3565Z" fill="#BAC6F2"/>
<path d="M392.444 129.036C392.444 129.036 392.722 128.608 392.637 128.787C391.703 130.777 386.022 141.309 385.381 143.443C384.681 145.771 385.724 140.741 385.724 140.741L392.444 129.036ZM415.414 111.211C415.414 111.211 397.534 137.344 392.334 142.707C385.734 149.527 393.417 132.657 396.352 128.28C399.357 123.782 407.751 114.609 415.414 111.211Z" fill="#BAC6F2"/>
<path d="M389.806 144.005C389.806 144.005 390.099 143.547 390.005 143.741C389.012 145.846 383.052 157.104 382.331 159.367C381.572 161.854 382.744 156.502 382.744 156.502L389.806 144.005ZM412.742 125.852C412.742 125.852 394.862 151.985 389.662 157.347C383.062 164.168 390.745 147.298 393.68 142.92C396.685 138.418 405.073 129.24 412.742 125.852Z" fill="#BAC6F2"/>
<path d="M387.134 158.636C387.134 158.636 387.427 158.178 387.333 158.372C386.34 160.476 380.191 172.117 379.491 174.386C378.731 176.873 379.987 171.013 379.987 171.013L387.134 158.636ZM413.214 139.478C413.214 139.478 393.079 166.063 387.884 171.426C381.284 178.246 390.492 159.268 393.427 154.88C396.417 150.388 405.521 142.866 413.214 139.478Z" fill="#BAC6F2"/>
<path d="M385.753 172.69C385.753 172.69 385.927 172.446 385.818 172.69C384.641 175.232 377.161 189.032 376.272 191.748C375.279 194.733 376.794 187.768 376.794 187.768L385.753 172.69ZM413.959 156.611C409.151 162.553 404.045 168.246 398.661 173.67C393.491 178.754 388.003 182.296 385.748 184.057C378.626 189.639 390.059 172.769 393.427 168.869C396.888 164.874 406.37 158.347 413.959 156.611Z" fill="#BAC6F2"/>
<path d="M383.618 184.743C383.618 184.743 383.792 184.5 383.682 184.743C382.505 187.286 374.445 202.21 373.645 204.931C373.456 205.573 374.529 199.907 374.529 199.907L383.618 184.743ZM411.023 172.098C411.023 172.098 402.481 182.778 393.854 191.335C388.058 197.081 381.934 201.125 379.421 203.125C371.475 209.463 384.348 190.514 388.132 186.121C392.011 181.619 402.6 174.182 411.023 172.098ZM407.785 198.18C407.785 198.18 396.908 202.981 388.47 208.075C378.572 214.045 377.047 214.602 374.713 214.985C367.342 216.199 384.944 199.618 388.907 197.648C392.97 195.638 401.527 194.787 407.785 198.18Z" fill="#BAC6F2"/>
<path d="M376.724 204.399C376.724 204.399 377.132 203.772 377.072 203.901C376.426 205.215 372.493 210.891 372.23 212.358C372.17 212.707 372.637 209.796 372.637 209.796L376.724 204.399ZM373.784 213.975C373.784 213.975 374.047 213.687 374.013 213.741C373.655 214.378 371.033 216.975 371.087 217.751C371.087 217.935 370.983 216.388 370.983 216.388L373.784 213.975Z" fill="#BAC6F2"/>
<path d="M176.711 212.567C174.909 212.458 173.161 211.909 171.619 210.968C170.077 210.027 168.789 208.723 167.865 207.17C164.046 200.663 163.852 193.071 164.071 190.708C166.738 161.556 180.281 28.0677 215.226 24.8838C253.966 21.3518 239.384 188.718 228.81 205.045C218.236 221.373 187.091 213.254 187.091 213.254L176.711 212.567Z" fill="#B1C1F2"/>
<path d="M210.419 79.2085C210.419 79.2085 220.148 68.8261 223.774 64.9308C227.399 61.0356 235.088 49.32 235.088 49.32L235.47 50.9219C235.47 50.9219 217.655 77.3578 211.208 84.4568C204.762 91.5559 209.972 84.0937 209.972 84.0937L210.419 79.2134M207.101 100.714C207.101 100.714 198.161 89.4863 195.221 85.606C192.281 81.7257 185.67 69.5823 185.67 69.5823L185.278 70.8359C185.278 70.8359 199.969 98.2768 205.243 105.341C206.157 106.57 206.321 104.893 206.321 104.893L206.912 101.908M212.51 59.6974C212.51 59.6974 206.684 52.1258 204.752 49.509C202.82 46.8923 198.534 38.6889 198.534 38.6889L198.151 39.3107C198.151 39.3107 207.826 58.0756 211.268 62.8414C211.864 63.6672 211.983 62.533 211.983 62.533L212.385 60.5132M206.028 108.604C206.028 108.604 223.615 99.2717 230.94 90.4813C238.112 81.8451 239.324 79.303 239.324 79.303L239.468 80.5666C239.468 80.5666 223.664 105.157 205.894 116.639C204.205 117.733 205.671 115.067 205.671 115.067L206.043 108.599M202.522 122.429C202.522 122.429 189.316 112.977 184.727 104.465C180.222 96.1028 179.392 93.1329 179.392 93.1329L179.094 94.3567C179.094 94.3567 188.68 118.146 201.221 128.225C201.34 128.319 201.717 128.225 201.717 128.225L202.497 122.489M203.744 136.538C203.744 136.538 222.731 126.633 230.752 117.529C238.624 108.575 240.099 105.958 240.099 105.958V107.147C240.099 107.147 222.587 132.573 203.346 144.667C201.514 145.816 203.153 143.085 203.153 143.085L203.724 136.538M199.264 150.338C199.264 150.338 184.707 139.891 179.671 130.439C174.704 121.171 174.123 118.559 174.123 118.559L173.825 120.116C173.825 120.116 183.977 145.632 197.789 156.77C197.918 156.875 198.345 156.77 198.345 156.77L199.229 150.398M200.61 163.138C200.61 163.138 220.645 152.79 229.207 143.463C237.606 134.309 239.344 131.523 239.344 131.523L239.274 132.762C239.274 132.762 220.401 158.785 200.038 171.336C198.102 172.53 199.865 169.744 199.865 169.744L200.585 163.138M196.641 176.202C196.641 176.202 181.319 165.118 176.11 154.944C171.004 144.96 170.224 141.617 170.224 141.617L169.936 143.438C169.936 143.438 180.445 171.351 194.968 183.236C195.102 183.346 195.564 183.206 195.564 183.206L196.617 176.266M197.342 192.265C197.342 192.265 216.329 182.36 224.35 173.257C232.222 164.302 233.528 161.815 233.528 161.815L233.886 162.77C233.886 162.77 216.205 188.305 196.964 200.399C195.132 201.548 196.224 198.678 196.224 198.678L197.342 192.275M192.857 206.065C192.857 206.065 178.3 195.618 173.264 186.166C168.297 176.898 166.152 170.555 166.152 170.555L165.938 172.297C165.938 172.297 177.58 201.339 191.392 212.478C191.521 212.582 191.948 212.478 191.948 212.478L192.832 206.105" fill="#BAC6F2"/>
<path d="M218.166 25.0082L211.124 76.2286L194.655 214.323L188.178 213.503L216.642 27.7692L217.272 24.7694L218.166 25.0082Z" fill="#BAC6F2"/>
<path d="M289.685 212.199C286.656 211.204 282.359 199.389 282.409 196.892C282.906 172.859 286.094 60.2197 324.863 53.5037C367.869 46.0416 364.129 191.474 353.719 206.006C343.309 220.537 294.443 214.687 294.443 214.687L289.685 212.199Z" fill="#B1C1F2"/>
<path d="M324.133 98.2768C324.133 98.2768 334.111 88.6804 337.831 85.0787C341.551 81.4769 349.145 71.0498 349.145 71.0498L349.706 72.3084C349.706 72.3084 332.07 95.9237 325.474 102.461C318.879 108.997 324.064 102.311 324.064 102.311L324.143 98.2867M322.266 116.186C322.266 116.186 311.34 108.107 307.694 105.296C304.049 102.485 295.65 93.3866 295.65 93.3866L295.317 94.4512C295.317 94.4512 314.091 115.042 320.582 120.166C321.71 121.056 321.749 119.668 321.749 119.668L322.157 117.181M324.809 82.1634C324.809 82.1634 317.652 76.6912 315.263 74.7908C312.874 72.8905 307.386 66.7217 307.386 66.7217L307.009 67.2739C307.009 67.2739 319.425 81.3973 323.681 84.8697C324.421 85.4717 324.451 84.5364 324.451 84.5364L324.729 82.845M321.749 122.723C321.749 122.723 340.622 113.062 348.013 105.033C355.284 97.1574 356.421 94.9437 356.421 94.9437L356.689 95.9386C356.689 95.9386 341.144 117.828 322.276 129.27C320.483 130.359 321.888 128.016 321.888 128.016L321.749 122.713M319.023 134.384C319.023 134.384 303.458 128.26 297.597 121.872C291.846 115.604 290.644 113.281 290.644 113.281L290.42 114.31C290.42 114.31 303.174 132.533 318.044 139.249C318.183 139.314 318.606 139.174 318.606 139.174L318.983 134.414M321.6 145.716C321.6 145.716 341.963 135.413 350.148 127.056C358.179 118.857 359.585 116.534 359.585 116.534L359.709 117.499C359.709 117.499 342.326 140.254 321.869 152.373C319.922 153.527 321.516 151.109 321.516 151.109L321.595 145.716M317.771 157.477C317.771 157.477 300.617 150.711 294.175 143.622C287.853 136.657 286.959 134.613 286.959 134.613L286.77 135.891C286.77 135.891 300.304 155.452 316.693 162.879C316.847 162.949 317.314 162.795 317.314 162.795L317.756 157.506M320.374 167.73C320.374 167.73 341.874 156.944 350.64 148.328C359.237 139.871 360.941 137.413 360.941 137.413L360.97 138.408C360.97 138.408 342.097 161.79 320.468 174.431C318.407 175.63 320.135 173.157 320.135 173.157L320.374 167.685M317.066 178.828C317.066 178.828 298.983 171.625 292.308 163.944C285.742 156.422 284.59 153.795 284.59 153.795L284.426 155.288C284.426 155.288 298.561 176.759 315.804 184.694C315.963 184.768 316.465 184.599 316.465 184.599L317.046 178.828M319.226 191.803C319.226 191.803 339.589 181.5 347.774 173.142C355.805 164.944 357.047 162.74 357.047 162.74L357.544 163.476C357.544 163.476 339.982 186.36 319.519 198.459C317.573 199.613 318.526 197.146 318.526 197.146L319.226 191.803ZM315.402 203.573C315.402 203.573 298.248 196.807 291.806 189.718C285.484 182.753 282.523 177.858 282.523 177.858L282.434 179.301C282.434 179.301 297.93 201.553 314.324 208.981C314.478 209.05 314.945 208.896 314.945 208.896L315.387 203.608" fill="#BAC6F2"/>
<path d="M328.141 53.2699L324.67 95.7745L317.662 216.567L310.073 216.353L326.676 55.6927L327.118 53.1804L328.141 53.2699Z" fill="#BAC6F2"/>
<path d="M127.393 105.371L90.0986 213.632L93.2176 213.478L127.393 105.371Z" fill="white"/>
<path d="M125.739 87.382C125.739 87.382 124.636 101.63 127.393 105.371C127.393 105.366 132.31 97.0231 125.739 87.382ZM113.68 91.8444C113.68 91.8444 119.833 103.52 124.189 105.625C124.189 105.625 124.433 97.436 113.68 91.8444Z" fill="white"/>
<path d="M138.607 83.3176C138.607 83.3176 126.335 99.0976 128.088 104.709C128.088 104.744 142.253 97.5704 138.607 83.3176ZM107.963 97.2818C107.963 97.2818 114.375 112.296 116.486 116.504C116.983 117.499 117.43 117.937 117.822 117.997C119.004 118.181 119.694 114.932 119.684 112.704C119.689 109.719 116.809 100.65 107.963 97.2818Z" fill="white"/>
<path d="M118.041 117.733C118.041 117.733 117.986 117.654 118.006 117.778C118.239 119.131 119.684 127.339 119.456 128.752C119.208 130.299 120.335 126.762 120.335 126.762L118.041 117.733ZM124.159 105.48C124.159 105.48 123.981 105.416 124 105.48C124.577 106.779 124.631 112.226 124.403 113.644C124.154 115.191 125.028 112.405 125.028 112.405L124.159 105.48ZM104.432 103.441C104.432 103.441 107.76 123.25 111.062 127.683C115.269 133.319 116.029 122.678 115.448 120.718C114.867 118.758 112.736 107.485 104.432 103.441Z" fill="white"/>
<path d="M124.159 105.48C124.159 105.48 123.98 105.416 124 105.48C124.576 106.779 124.631 112.226 124.403 113.644C124.154 115.191 125.028 112.405 125.028 112.405L124.159 105.48ZM113.516 128.598C113.516 128.598 113.461 128.509 113.486 128.648C113.734 130.14 115.269 139.309 115.051 140.881C114.817 142.602 115.91 138.652 115.91 138.652L113.516 128.598ZM91.2905 111.744C91.2905 111.744 100.821 134.16 105.48 138.846C111.405 144.816 110.367 131.986 109.17 129.812C107.973 127.638 100.727 115.36 91.2905 111.744Z" fill="white"/>
<path d="M108.495 140.164C108.495 140.164 108.321 139.786 108.346 139.941C108.624 141.622 111.162 150.736 110.918 152.492C110.655 154.412 111.912 150.343 111.912 150.343L108.495 140.164ZM84.4268 122.589C84.4268 122.589 96.3465 145.781 101.03 150.791C106.99 157.163 105.003 142.831 103.131 138.941C101.194 134.961 93.898 126.469 84.4268 122.589Z" fill="white"/>
<path d="M104.06 152.203C104.06 152.203 103.886 151.8 103.911 151.965C104.199 153.76 106.791 163.466 106.558 165.337C106.305 167.381 107.551 163.048 107.551 163.048L104.06 152.203ZM80.2351 134.369C80.2351 134.369 92.1549 157.561 96.8384 162.571C102.798 168.944 100.812 154.611 98.9392 150.721C96.9973 146.741 89.7014 138.249 80.2351 134.369Z" fill="white"/>
<path d="M99.863 163.984C99.863 163.984 99.6891 163.581 99.714 163.745C100.002 165.541 102.624 175.575 102.396 177.445C102.143 179.49 103.563 174.754 103.563 174.754L99.863 163.984ZM71.9856 144.856C71.9856 144.856 86.9648 168.769 91.6532 173.774C97.6131 180.147 94.5636 163.924 92.6465 160.039C90.7294 156.064 81.4469 148.741 71.9856 144.856Z" fill="white"/>
<path d="M94.0818 175.102C94.0818 175.102 93.9626 174.883 93.9924 175.102C94.3152 177.266 97.6925 189.191 97.4988 191.44C97.2852 193.897 98.949 188.261 98.949 188.261L94.0818 175.102ZM61.3074 158.009C65.2612 163.594 69.6523 168.856 74.439 173.744C79.2566 178.535 85.4052 182.201 87.7494 183.913C95.1993 189.385 87.6649 174.461 84.8489 170.879C81.9435 167.217 71.5683 160.601 61.3074 158.009Z" fill="white"/>
<path d="M90.5208 184.798C90.5208 184.798 90.4016 184.579 90.4314 184.798C90.7542 186.962 94.3699 199.852 94.0371 202.09C93.9576 202.623 95.5271 198.051 95.5271 198.051L90.5208 184.798ZM57.0262 170.491C57.0262 170.491 63.7113 180.172 71.7124 188.221C77.0813 193.628 83.8904 197.762 86.4929 199.727C94.7424 205.946 86.2297 189.141 83.0759 185.117C79.8427 180.997 68.3302 173.495 57.0262 170.491ZM47.2917 191.245C47.2917 191.245 60.7015 196.753 70.3565 202.085C81.6753 208.344 83.6272 209.02 86.8555 209.702C97.0866 211.851 80.2797 196.111 75.5118 193.932C70.6247 191.703 58.4268 189.654 47.2917 191.245Z" fill="white"/>
<path d="M89.7709 201.165C89.7709 201.165 89.5175 200.613 89.5374 200.717C89.7659 201.842 92.418 206.886 91.9859 208.07C91.8866 208.349 92.8054 206.021 92.8054 206.021L89.7709 201.165ZM88.7875 209.07C88.7875 209.07 88.559 208.801 88.5789 208.851C88.7527 209.403 91.1615 211.836 90.6748 212.438C90.5605 212.577 91.5886 211.398 91.5886 211.398L88.7875 209.07Z" fill="white"/>
<path d="M136.819 92.5011C136.819 92.5011 130.095 105.739 126.489 108.724C126.489 108.724 127.855 100.302 136.819 92.5011ZM141.786 98.4807C141.786 98.4807 132.017 108.226 128.292 109.45C131.438 104.385 136.189 100.523 141.786 98.4807Z" fill="white"/>
<path d="M131.157 86.7651C131.157 86.7651 130.383 103.142 126.404 108.017C126.404 108.017 121.562 99.2419 131.157 86.7651ZM142.427 104.346C142.427 104.346 130.765 117.091 127.308 120.614C126.494 121.439 125.997 121.778 125.724 121.773C124.915 121.773 126.181 118.673 127.343 116.634C128.898 113.913 135.329 106.052 142.427 104.346Z" fill="white"/>
<path d="M125.724 121.504C125.724 121.504 125.799 121.439 125.724 121.554C124.88 122.758 119.764 130.046 119.158 131.374C118.508 132.827 119.655 129.384 119.655 129.384L125.724 121.504ZM128.376 109.321C128.376 109.321 128.52 109.286 128.48 109.321C127.457 110.42 124.597 115.4 124.011 116.733C123.36 118.186 124.274 115.499 124.274 115.499L128.376 109.321ZM141.359 110.545C141.359 110.545 129.071 128.165 124.78 131.702C119.317 136.18 124.368 126.34 125.739 124.648C127.11 122.957 134.262 112.957 141.359 110.545Z" fill="white"/>
<path d="M128.376 109.321C128.376 109.321 128.52 109.286 128.48 109.321C127.457 110.42 124.596 115.4 124.01 116.733C123.36 118.186 124.274 115.499 124.274 115.499L128.376 109.321ZM122.818 132.16C122.818 132.16 122.898 132.09 122.818 132.215C121.885 133.558 116.213 141.697 115.528 143.159C114.778 144.771 116.163 140.985 116.163 140.985L122.818 132.16ZM144.989 120.211C144.989 120.211 127.606 139.244 122.362 142.806C115.686 147.338 122.967 135.757 124.845 133.956C126.722 132.155 137.41 122.046 144.989 120.211Z" fill="white"/>
<path d="M119.854 143.547C119.854 143.547 120.157 143.229 120.057 143.368C119.014 144.861 112.761 152.82 111.991 154.457C111.157 156.258 112.488 152.333 112.488 152.333L119.854 143.547ZM143.504 131.215C143.504 131.215 124.274 150.587 118.85 154.437C111.942 159.337 120.569 146.517 123.727 143.259C126.961 139.921 135.776 133.289 143.504 131.215Z" fill="white"/>
<path d="M116.288 155.258C116.288 155.258 116.6 154.915 116.501 155.064C115.394 156.661 108.793 165.148 107.964 166.894C107.055 168.804 108.555 164.645 108.555 164.645L116.288 155.258ZM139.928 142.662C139.928 142.662 120.683 162.034 115.269 165.884C108.361 170.784 116.988 157.964 120.147 154.706C123.385 151.368 132.2 144.736 139.928 142.662Z" fill="white"/>
<path d="M112.712 166.7C112.712 166.7 113.024 166.357 112.925 166.506C111.818 168.103 105.033 176.878 104.199 178.629C103.29 180.54 104.889 175.978 104.889 175.978L112.712 166.7ZM139.471 153.562C139.471 153.562 118.021 173.107 112.592 176.943C105.684 181.843 115.945 167.466 119.104 164.208C122.337 160.884 131.739 155.631 139.471 153.562Z" fill="white"/>
<path d="M110.437 177.794C110.437 177.794 110.621 177.615 110.501 177.794C109.185 179.724 100.956 190.116 99.9077 192.221C98.7605 194.504 100.683 189.081 100.683 189.081L110.437 177.794ZM139.099 167.277C133.948 171.664 128.577 175.785 123.007 179.624C117.614 183.256 112.011 185.629 109.692 186.853C102.356 190.718 114.658 178.207 118.205 175.371C121.845 172.471 131.555 168.043 139.099 167.277Z" fill="white"/>
<path d="M107.556 187.226C107.556 187.226 107.74 187.047 107.621 187.226C106.305 189.156 97.4344 200.394 96.4709 202.498C96.2424 202.996 97.6678 198.563 97.6678 198.563L107.556 187.226ZM135.205 179.366C135.205 179.366 126.146 187.201 117.137 193.295C111.087 197.404 104.83 200.125 102.237 201.513C94.0273 205.916 107.889 191.862 111.882 188.669C115.975 185.42 126.822 180.361 135.205 179.366ZM130.318 199.912C130.318 199.912 119.362 202.847 110.75 206.23C100.668 210.209 99.1379 210.503 96.8434 210.617C89.5524 210.98 107.864 199.2 111.877 197.956C115.989 196.673 124.418 196.708 130.318 199.912Z" fill="white"/>
<path d="M99.5203 202.329C99.6381 202.199 99.7624 202.074 99.8928 201.956C99.1727 202.951 94.9511 207.155 94.5984 208.304C94.514 208.578 95.1696 206.314 95.1696 206.314L99.5203 202.329ZM96.009 209.712C96.009 209.712 96.2871 209.503 96.2473 209.548C95.855 210.045 93.1383 211.881 93.1184 212.503V211.408L96.009 209.712Z" fill="white"/>
<path d="M230.3 103.839L253.459 216.428L250.469 216.05L230.3 103.839Z" fill="white"/>
<path d="M234.025 85.6906C234.025 85.6906 233.399 100.237 230.3 103.839C230.3 103.839 226.55 95.0133 234.025 85.6906ZM245.125 91.0832C245.125 91.0832 237.81 102.5 233.36 104.326C233.365 104.326 234.1 95.9983 245.125 91.0832Z" fill="white"/>
<path d="M222.1 80.6511C222.1 80.6511 232.068 97.5654 229.709 103.142C229.709 103.142 216.895 94.8591 222.1 80.6511ZM250.003 97.0032C250.003 97.0032 242.056 111.793 239.513 115.907C238.917 116.877 238.435 117.295 238.023 117.33C236.861 117.435 236.578 114.082 236.856 111.823C237.238 108.813 241.068 99.804 250.003 97.0032Z" fill="white"/>
<path d="M237.859 117.062C237.859 117.062 237.919 116.987 237.884 117.111C237.497 118.469 235.138 126.698 235.187 128.15C235.247 129.737 234.576 126.051 234.576 126.051L237.859 117.062ZM233.389 104.182C233.389 104.182 233.568 104.127 233.543 104.182C232.833 105.46 232.133 110.987 232.187 112.44C232.247 114.027 231.73 111.137 231.73 111.137L233.389 104.182ZM252.675 103.515C252.675 103.515 247.122 123.414 243.412 127.658C238.689 133.08 239.205 122.225 240.005 120.285C240.804 118.345 244.211 107.037 252.675 103.515Z" fill="white"/>
<path d="M233.389 104.182C233.389 104.182 233.568 104.127 233.543 104.182C232.833 105.46 232.133 110.987 232.187 112.44C232.247 114.027 231.73 111.137 231.73 111.137L233.389 104.182ZM240.939 128.414C240.939 128.414 241.003 128.329 240.939 128.469C240.521 129.961 237.959 139.164 237.959 140.776C237.959 142.542 237.392 138.453 237.392 138.453L240.939 128.414ZM264.366 112.888C264.366 112.888 252.521 134.971 247.48 139.398C241.058 145.035 243.576 132.085 244.996 129.946C246.417 127.807 254.835 115.887 264.366 112.888Z" fill="white"/>
<path d="M244.41 140.518C244.41 140.518 244.624 140.144 244.579 140.304C244.112 141.995 240.606 151.064 240.606 152.865C240.635 154.855 239.9 150.611 239.9 150.611L244.41 140.518ZM269.68 124.384C269.68 124.384 255.446 147.084 250.31 151.835C243.804 157.88 247.4 143.463 249.689 139.652C252.068 135.757 260.109 127.653 269.68 124.384Z" fill="white"/>
<path d="M247.261 153.054C247.261 153.054 247.479 152.656 247.435 152.825C246.938 154.626 243.298 164.302 243.298 166.217C243.298 168.312 242.622 163.824 242.622 163.824L247.261 153.054ZM272.347 136.647C272.347 136.647 258.113 159.347 252.977 164.098C246.471 170.142 250.067 155.725 252.357 151.915C254.721 148.025 262.762 139.916 272.347 136.647Z" fill="white"/>
<path d="M249.918 165.317C249.918 165.317 250.137 164.919 250.092 165.088C249.595 166.889 245.885 176.888 245.885 178.804C245.885 180.898 245.076 175.988 245.076 175.988L249.918 165.317ZM279.067 147.885C279.067 147.885 261.793 171.098 256.678 175.849C250.171 181.893 255.034 165.64 257.323 161.83C259.663 157.929 269.481 151.154 279.067 147.885Z" fill="white"/>
<path d="M254.179 177.023C254.179 177.023 254.318 176.809 254.269 177.023C253.703 179.197 249.034 191.066 248.955 193.365C248.87 195.852 247.931 190.032 247.931 190.032L254.179 177.023ZM287.808 161.999C283.35 167.37 278.493 172.397 273.281 177.037C268.066 181.555 261.709 184.818 259.24 186.415C251.423 191.464 260.442 176.819 263.581 173.386C266.799 169.879 277.627 163.904 287.808 161.999Z" fill="white"/>
<path d="M256.464 187.116C256.464 187.116 256.603 186.902 256.553 187.116C255.987 189.29 250.976 202.12 251.026 204.419C251.026 204.961 250.067 200.21 250.067 200.21L256.464 187.116ZM290.46 174.983C290.46 174.983 282.866 184.335 274.2 191.937C268.379 197.041 261.326 200.757 258.585 202.568C249.893 208.294 260.075 191.837 263.611 187.977C267.197 184.022 279.206 177.227 290.46 174.983ZM297.394 196.748C297.394 196.748 283.805 201.379 273.872 206.11C262.23 211.657 260.244 212.199 257.055 212.667C246.938 214.119 265.002 199.334 269.864 197.464C274.835 195.554 286.84 194.34 297.394 196.748Z" fill="white"/>
<path d="M255.247 203.792C255.247 203.792 255.555 203.25 255.525 203.354C255.173 204.478 252.019 209.413 252.292 210.642C252.357 210.931 251.746 208.498 251.746 208.498L255.247 203.792ZM255.277 211.886C255.277 211.886 255.525 211.627 255.506 211.682C255.272 212.229 252.66 214.537 253.057 215.164C253.151 215.313 252.297 214.045 252.297 214.045L255.277 211.886Z" fill="white"/>
<path d="M222.736 90.1032C222.736 90.1032 227.658 104.008 230.782 107.301C230.777 107.301 230.444 98.6598 222.736 90.1032ZM217.238 95.8192C217.238 95.8192 225.512 106.391 228.954 107.923C226.583 102.639 222.437 98.3561 217.238 95.8192Z" fill="white"/>
<path d="M228.875 84.6807C228.875 84.6807 227.688 101.361 230.946 106.6C230.941 106.6 236.652 98.038 228.875 84.6807ZM215.927 101.729C215.927 101.729 225.666 115.499 228.582 119.325C229.267 120.225 229.709 120.599 229.972 120.614C230.757 120.653 229.898 117.43 229.019 115.281C227.842 112.41 222.567 103.968 215.927 101.729Z" fill="white"/>
<path d="M230.002 120.34C230.002 120.34 229.937 120.27 230.002 120.39C230.672 121.673 234.755 129.439 235.172 130.837C235.629 132.359 234.914 128.797 234.914 128.797L230.002 120.34ZM228.889 107.779C228.889 107.779 228.755 107.734 228.785 107.779C229.639 108.968 231.81 114.246 232.227 115.624C232.684 117.146 232.118 114.355 232.118 114.355L228.889 107.779ZM216.225 108.102C216.225 108.102 225.989 126.867 229.709 130.767C234.447 135.742 230.742 125.354 229.619 123.534C228.497 121.713 222.785 111.052 216.225 108.102Z" fill="white"/>
<path d="M228.889 107.779C228.889 107.779 228.755 107.734 228.785 107.779C229.639 108.968 231.81 114.246 232.227 115.624C232.684 117.146 232.118 114.355 232.118 114.355L228.889 107.779ZM231.542 131.369C231.542 131.369 231.472 131.289 231.542 131.424C232.282 132.856 236.791 141.523 237.278 143.07C237.809 144.761 236.92 140.816 236.92 140.816L231.542 131.369ZM211.571 117.678C211.571 117.678 226.083 138.244 230.722 142.234C236.622 147.313 230.97 135.035 229.396 133.07C227.822 131.105 218.668 120.056 211.571 117.678Z" fill="white"/>
<path d="M233.057 143.134C233.057 143.134 232.803 142.791 232.883 142.935C233.712 144.532 238.803 153.044 239.339 154.77C239.93 156.656 239.096 152.577 239.096 152.577L233.057 143.134ZM211.71 128.936C211.71 128.936 227.961 149.975 232.739 154.273C238.818 159.745 232.019 146.109 229.356 142.572C226.63 138.951 218.917 131.608 211.71 128.936Z" fill="white"/>
<path d="M235.113 155.288C235.113 155.288 234.849 154.92 234.929 155.074C235.808 156.775 241.167 165.859 241.763 167.695C242.413 169.685 241.455 165.372 241.455 165.372L235.113 155.288ZM213.801 140.811C213.801 140.811 230.052 161.849 234.829 166.148C240.909 171.62 234.109 157.984 231.447 154.447C228.726 150.83 221.008 143.468 213.801 140.811Z" fill="white"/>
<path d="M237.204 167.163C237.204 167.163 236.94 166.794 237.02 166.949C237.899 168.65 243.407 178.047 243.998 179.883C244.649 181.873 243.645 177.142 243.645 177.142L237.204 167.163ZM212.957 151.91C212.957 151.91 231.333 173.301 236.111 177.585C242.19 183.057 234 167.725 231.338 164.188C228.611 160.571 220.163 154.566 212.957 151.91Z" fill="white"/>
<path d="M238.088 178.585C238.088 178.585 237.929 178.391 238.028 178.585C239.071 180.639 245.776 191.778 246.541 193.972C247.375 196.369 246.168 190.728 246.168 190.728L238.088 178.585ZM211.69 165.864C216.129 170.675 220.822 175.244 225.751 179.55C230.523 183.619 235.644 186.43 237.735 187.838C244.355 192.29 233.975 178.704 230.881 175.575C227.712 172.371 218.877 167.177 211.69 165.864ZM239.746 188.37C239.746 188.37 239.587 188.176 239.687 188.37C240.73 190.425 247.951 202.469 248.627 204.672C248.786 205.17 247.936 200.593 247.936 200.593L239.746 188.37ZM214.01 178.43C218.996 183.842 224.262 188.99 229.783 193.852C235.127 198.454 240.844 201.663 243.193 203.26C250.588 208.314 238.887 193.056 235.411 189.529C231.84 185.937 222.001 180.022 214.01 178.43ZM216.294 199.623C216.294 199.623 226.515 203.389 234.402 207.423C243.655 212.159 245.095 212.587 247.315 212.871C254.303 213.761 238.038 200.494 234.318 198.941C230.499 197.359 222.363 196.777 216.294 199.623Z" fill="white"/>
<path d="M245.711 204.279C245.613 204.138 245.506 204.002 245.393 203.871C245.969 204.931 249.54 209.503 249.749 210.692C249.799 210.975 249.436 208.612 249.436 208.612L245.711 204.279ZM248.219 212.04C248.219 212.04 247.976 211.806 248.006 211.856C248.324 212.353 250.727 214.448 250.673 215.08C250.673 215.229 250.817 213.97 250.817 213.97L248.219 212.04Z" fill="white"/>
</g>
<defs>
<clipPath id="clip0_367_2">
<rect width="416" height="287" fill="white"/>
</clipPath>
</defs>
</svg>
