<svg width="1043" height="782" viewBox="0 0 1043 782" fill="none" xmlns="http://www.w3.org/2000/svg">
<path opacity="0.45" d="M230.503 696.71C312.17 696.71 378.374 684.176 378.374 668.714C378.374 653.253 312.17 640.719 230.503 640.719C148.836 640.719 82.6316 653.253 82.6316 668.714C82.6316 684.176 148.836 696.71 230.503 696.71Z" fill="#E6E6E6"/>
<path d="M782.954 198.889H237.726V557.045H782.954V198.889Z" fill="#E6E6E6"/>
<path d="M264.088 231.576C269.013 231.576 273.005 227.585 273.005 222.661C273.005 217.738 269.013 213.747 264.088 213.747C259.162 213.747 255.17 217.738 255.17 222.661C255.17 227.585 259.162 231.576 264.088 231.576Z" fill="#24285B"/>
<path d="M290.58 231.576C295.505 231.576 299.497 227.585 299.497 222.661C299.497 217.738 295.505 213.747 290.58 213.747C285.655 213.747 281.662 217.738 281.662 222.661C281.662 227.585 285.655 231.576 290.58 231.576Z" fill="#68E1FD"/>
<path d="M315.56 231.576C320.485 231.576 324.477 227.585 324.477 222.661C324.477 217.738 320.485 213.747 315.56 213.747C310.635 213.747 306.642 217.738 306.642 222.661C306.642 227.585 310.635 231.576 315.56 231.576Z" fill="#FFD200"/>
<path opacity="0.08" d="M694.586 198.889L566.166 199.41L545.619 228.318L352.012 406.067L367.918 436.956L313.552 458.382H260.567L253.553 557.045H315.507L324.269 499.437C376.132 492.53 410.316 445.01 410.316 445.01L636.23 348.433L607.547 282.38L645.695 264.134L647.807 276.098C647.807 276.098 668.433 270.416 667.572 251.204C666.712 231.993 664.912 208.142 694.586 198.889Z" fill="black"/>
<path d="M588.617 126.084C585.462 151.343 572.425 203.529 518.893 226.78L526.715 239.813C526.715 239.813 601.211 216.353 619.177 156.4C627.234 129.421 622.097 117.717 613.962 112.973C611.491 111.609 608.722 110.876 605.9 110.838C603.078 110.799 600.29 111.458 597.783 112.755C595.276 114.052 593.128 115.947 591.53 118.272C589.931 120.597 588.93 123.28 588.617 126.084Z" fill="#68E1FD"/>
<path opacity="0.2" d="M588.617 126.084C585.462 151.343 572.425 203.529 518.893 226.78L526.715 239.813C526.715 239.813 601.211 216.353 619.177 156.4C627.234 129.421 622.097 117.717 613.962 112.973C611.491 111.609 608.722 110.876 605.9 110.838C603.078 110.799 600.29 111.458 597.783 112.755C595.276 114.052 593.128 115.947 591.53 118.272C589.931 120.597 588.93 123.28 588.617 126.084Z" fill="white"/>
<path d="M595.449 86.1503L608.252 101.764L619.516 89.6693L599.308 71.7355L595.449 86.1503Z" fill="#F4A28C"/>
<path d="M586.427 57.477C584.462 57.172 582.453 57.363 580.581 58.0328C578.709 58.7026 577.035 59.8299 575.711 61.3119C574.386 62.794 573.454 64.5837 572.998 66.5181C572.543 68.4525 572.578 70.4701 573.102 72.3871C575.475 81.5105 580.586 93.9443 590.338 89.6693C605.227 83.1527 597.404 63.6027 597.404 63.6027C594.427 60.5261 590.609 58.3954 586.427 57.477Z" fill="#F4A28C"/>
<path d="M606.218 179.704L580.821 192.737C578.646 193.868 576.721 195.426 575.161 197.317C573.602 199.208 572.439 201.394 571.743 203.744C571.047 206.094 570.832 208.56 571.11 210.996C571.389 213.431 572.155 215.785 573.363 217.917L596.179 257.408L607.287 249.588L594.249 213.564C594.029 212.968 593.937 212.333 593.979 211.699C594.022 211.065 594.198 210.448 594.496 209.886C594.794 209.325 595.207 208.833 595.708 208.443C596.209 208.053 596.787 207.773 597.404 207.621L622.723 201.443L618.212 213.434C616.79 217.18 616.285 221.212 616.738 225.193C617.192 229.175 618.591 232.99 620.82 236.32L644.287 271.302L653.179 265.854L641.888 234.861C640.648 231.458 640.363 227.781 641.067 224.229C641.77 220.676 643.434 217.384 645.878 214.711L658.107 201.313L606.218 179.704Z" fill="#24285B"/>
<path d="M852.261 497.873H699.723V594.32H852.261V497.873Z" fill="#F2F2F2"/>
<path opacity="0.08" d="M700.114 497.873H675.316V557.045H700.114V497.873Z" fill="black"/>
<path d="M567.418 60.7875C567.418 60.7875 563.298 74.0293 577.64 70.771C591.981 67.5127 590.886 62.951 590.886 62.951C590.886 62.951 591.981 78.591 599.151 75.1241C606.322 71.6573 602.202 63.1335 599.151 57.2945C596.101 51.4556 594.302 49.7091 586.114 48.8489C577.926 47.9887 568.435 52.7589 567.418 60.7875Z" fill="#24285B"/>
<path d="M591.12 72.0743C591.12 72.0743 590.521 67.6169 594.823 68.4771C599.125 69.3373 597.43 75.5412 594.823 75.9843C592.215 76.4275 591.12 72.0743 591.12 72.0743Z" fill="#F4A28C"/>
<path d="M213.111 410.967L219.499 430.126L204.35 439.745L198.874 406.536L213.111 410.967Z" fill="#F4A28C"/>
<path d="M193.685 388.028C194.479 386.207 195.716 384.612 197.283 383.389C198.849 382.166 200.697 381.353 202.657 381.024C204.617 380.696 206.629 380.861 208.509 381.506C210.389 382.151 212.079 383.255 213.424 384.718C219.864 391.6 227.635 402.574 218.848 408.517C205.367 417.64 193.007 400.697 193.007 400.697C191.97 396.5 192.206 392.09 193.685 388.028Z" fill="#F4A28C"/>
<path d="M203.541 399.784C203.541 399.784 200.073 396.891 198.509 400.984C196.944 405.076 203.046 407.083 204.871 404.998C206.696 402.912 203.541 399.784 203.541 399.784Z" fill="#F4A28C"/>
<path d="M605.54 98.4538L619.516 89.6693C619.516 89.6693 664.912 74.1597 679.254 88.4181C693.595 102.677 694.612 156.478 658.107 201.313L606.218 179.704C606.218 179.704 607.261 153.898 598.63 147.381C589.999 140.864 579.386 121.314 605.54 98.4538Z" fill="#3E8CD4"/>
<path d="M598.786 255.453C598.786 255.453 595.944 268.643 601.029 268.174C606.113 267.705 607.287 249.458 607.287 249.458L598.786 255.453Z" fill="#68E1FD"/>
<path d="M644.548 270.702C644.548 270.702 641.706 283.866 646.79 283.423C651.875 282.98 653.022 264.707 653.022 264.707L644.548 270.702Z" fill="#68E1FD"/>
<path d="M716.567 192.294C716.567 192.294 707.806 196.073 711.039 200.401C714.273 204.728 725.354 198.889 725.354 198.889L726.032 192.294H716.567Z" fill="#F4A28C"/>
<path d="M519.962 228.318C519.962 228.318 505.568 229.491 508.593 232.801C510.079 234.594 511.951 236.029 514.069 236.998C514.069 236.998 503.639 248.65 511.227 250.97C518.814 253.29 526.22 238.771 526.22 238.771L519.962 228.318Z" fill="#F4A28C"/>
<path d="M549.487 221.548L295.215 338.867L341.759 439.68L596.031 322.361L549.487 221.548Z" fill="#90F577"/>
<path opacity="0.58" d="M528.571 263.1L406.552 319.153L414.173 335.733L536.193 279.68L528.571 263.1Z" fill="white"/>
<path opacity="0.58" d="M544.348 297.455L422.329 353.509L429.95 370.089L551.97 314.035L544.348 297.455Z" fill="white"/>
<path d="M370.369 396.709C386.383 396.709 399.365 383.731 399.365 367.722C399.365 351.714 386.383 338.736 370.369 338.736C354.356 338.736 341.374 351.714 341.374 367.722C341.374 383.731 354.356 396.709 370.369 396.709Z" fill="white"/>
<path d="M751.586 527.407L731.247 547.165L751.586 566.95" stroke="#A5A5A5" stroke-width="2" stroke-linecap="round" stroke-linejoin="round"/>
<path d="M795.574 527.407L815.913 547.165L795.574 566.95" stroke="#A5A5A5" stroke-width="2" stroke-linecap="round" stroke-linejoin="round"/>
<path opacity="0.58" d="M499.806 167.296C499.806 167.296 474.748 160.571 469.35 137.319C469.35 137.319 508.071 129.317 509.349 169.303L499.806 167.296Z" fill="#68E1FD"/>
<path opacity="0.73" d="M502.856 164.793C502.856 164.793 485.256 137.241 500.536 111.357C500.536 111.357 530.079 129.942 517.145 164.793H502.856Z" fill="#68E1FD"/>
<path d="M507.367 164.793C507.367 164.793 516.468 135.599 544.368 129.942C544.368 129.942 549.583 148.867 526.428 164.793H507.367Z" fill="#68E1FD"/>
<path d="M781.494 527.407L761.99 566.95" stroke="#A5A5A5" stroke-width="2" stroke-linecap="round" stroke-linejoin="round"/>
<path opacity="0.63" d="M349.405 261.761H272.979V276.098H349.405V261.761Z" fill="#CECECE"/>
<path d="M200.96 435.965C200.96 435.965 156.189 463.074 150.322 526.677C149.833 531.941 151.251 537.205 154.319 541.512C157.387 545.818 161.9 548.879 167.036 550.137L219.499 563.04L200.96 435.965Z" fill="#68E1FD"/>
<path opacity="0.2" d="M200.96 435.965C200.96 435.965 156.189 463.074 150.322 526.677C149.833 531.941 151.251 537.205 154.319 541.512C157.387 545.818 161.9 548.879 167.036 550.137L219.499 563.04L200.96 435.965Z" fill="white"/>
<path d="M489.219 164.22L494.434 198.889H526.376L530.939 164.22H489.219Z" fill="#24285B"/>
<path d="M205.445 394.806C205.445 394.806 212.59 415.294 200.1 414.017C187.61 412.74 194.467 403.929 188.262 394.806C182.056 385.682 185.341 379.531 194.78 371.528C199.135 367.853 202.055 366.158 203.776 364.203C204.508 363.337 205.448 362.671 206.507 362.267C207.567 361.863 208.712 361.734 209.835 361.893C210.958 362.052 212.022 362.493 212.928 363.175C213.834 363.857 214.552 364.758 215.015 365.794C218.248 373.666 218.274 384.197 205.445 394.806Z" fill="#24285B"/>
<path opacity="0.08" d="M782.954 293.563H668.38V473.657H782.954V293.563Z" fill="black"/>
<path d="M210.34 507.642L123.889 529.916L139.86 591.863L226.31 569.589L210.34 507.642Z" fill="#90F577"/>
<path opacity="0.08" d="M174.937 515.729L184.846 557.045L182.264 579.801L205.445 573.806L212.355 555.35L190.087 511.793L174.937 515.729Z" fill="black"/>
<path d="M190.608 449.285C192.735 444.567 195.856 440.364 199.758 436.963C203.66 433.562 208.25 431.043 213.215 429.579C232.354 423.818 268.703 411.775 279.446 429.579C294.152 454.081 271.623 550.293 271.623 550.293L207.296 555.272C207.296 555.272 171.808 491.565 190.608 449.285Z" fill="#3E8CD4"/>
<path d="M271.519 550.372L263.045 660.92H249.668L237.726 575.031L208.157 555.35L271.519 550.372Z" fill="#24285B"/>
<path d="M208.157 555.35L189.696 660.92H204.037L235.014 573.232L208.157 555.35Z" fill="#24285B"/>
<path d="M241.037 444.306C240.17 441.593 239.95 438.715 240.395 435.901C240.84 433.088 241.938 430.418 243.601 428.105C245.263 425.792 247.444 423.9 249.969 422.581C252.495 421.261 255.294 420.551 258.143 420.507C266.33 420.247 275.743 421.654 282.966 427.493C299.054 440.527 351.804 449.389 399.417 405.832L408.569 419.882C408.569 419.882 354.49 490.262 269.798 470.034C263.359 468.576 257.387 465.532 252.424 461.18C247.46 456.828 243.663 451.306 241.376 445.114C241.246 444.854 241.142 444.567 241.037 444.306Z" fill="#68E1FD"/>
<path opacity="0.2" d="M241.037 444.306C240.17 441.593 239.95 438.715 240.395 435.901C240.84 433.088 241.938 430.418 243.601 428.105C245.263 425.792 247.444 423.9 249.969 422.581C252.495 421.261 255.294 420.551 258.143 420.507C266.33 420.247 275.743 421.654 282.966 427.493C299.054 440.527 351.804 449.389 399.417 405.832L408.569 419.882C408.569 419.882 354.49 490.262 269.798 470.034C263.359 468.576 257.387 465.532 252.424 461.18C247.46 456.828 243.663 451.306 241.376 445.114C241.246 444.854 241.142 444.567 241.037 444.306Z" fill="white"/>
<path opacity="0.08" d="M218.769 427.884C218.769 427.884 188.679 524.774 275.561 531.187L271.519 550.372L207.192 555.35C192.4 529.3 184.897 499.749 185.472 469.8C185.472 469.8 186.019 445.088 203.437 434.166C208.044 431.008 213.271 428.867 218.769 427.884Z" fill="black"/>
<path d="M192.303 660.92L183.412 667.463C183.074 667.704 182.822 668.047 182.692 668.441C182.562 668.835 182.561 669.26 182.689 669.655C182.816 670.05 183.067 670.394 183.403 670.637C183.739 670.88 184.144 671.01 184.559 671.008H199.474C199.99 671.001 200.484 670.793 200.849 670.428C201.214 670.063 201.423 669.57 201.429 669.053V660.92H192.303Z" fill="#68E1FD"/>
<path d="M262.679 660.92L271.05 667.463C271.376 667.717 271.615 668.067 271.733 668.463C271.851 668.86 271.841 669.283 271.706 669.674C271.571 670.065 271.317 670.404 270.979 670.643C270.642 670.882 270.238 671.01 269.824 671.008H259.212C257.708 671.001 256.269 670.399 255.209 669.335C254.149 668.27 253.553 666.828 253.553 665.326V660.92H262.679Z" fill="#68E1FD"/>
<path d="M883.969 258.503H694.586V452.908H883.969V258.503Z" fill="#F2F2F2"/>
<path d="M845.482 306.466H728.796V313.452H845.482V306.466Z" fill="#A5A5A5"/>
<path d="M845.482 350.597H728.796V357.583H845.482V350.597Z" fill="#A5A5A5"/>
<path d="M845.482 394.728H728.796V401.713H845.482V394.728Z" fill="#A5A5A5"/>
<path d="M839.433 293.563H839.406C833.761 293.563 829.185 298.138 829.185 303.781V316.137C829.185 321.78 833.761 326.355 839.406 326.355H839.433C845.078 326.355 849.654 321.78 849.654 316.137V303.781C849.654 298.138 845.078 293.563 839.433 293.563Z" fill="#543ED4"/>
<path d="M793.202 337.694H793.176C787.53 337.694 782.954 342.268 782.954 347.912V360.267C782.954 365.911 787.53 370.486 793.176 370.486H793.202C798.847 370.486 803.423 365.911 803.423 360.267V347.912C803.423 342.268 798.847 337.694 793.202 337.694Z" fill="#68E1FD"/>
<path d="M761.912 381.851H761.885C756.24 381.851 751.664 386.425 751.664 392.069V404.424C751.664 410.068 756.24 414.642 761.885 414.642H761.912C767.557 414.642 772.133 410.068 772.133 404.424V392.069C772.133 386.425 767.557 381.851 761.912 381.851Z" fill="#90F577"/>
<path d="M639.75 463.439H426.013V512.132H639.75V463.439Z" fill="white"/>
<path d="M639.75 463.439H566.871V512.132H639.75V463.439Z" fill="#24285B"/>
<path d="M406.17 416.259C406.17 416.259 417.33 419.908 419.703 403.486L400.747 407.943L406.17 416.259Z" fill="#F4A28C"/>
<path opacity="0.08" d="M627.599 188.592C627.599 188.592 650.284 184.265 658.107 152.985C665.929 121.705 649.267 96.8637 665.356 93.0319C681.444 89.2001 688.119 129.994 688.119 129.994C688.119 129.994 688.745 161.9 658.107 201.365L627.599 188.592Z" fill="black"/>
<path d="M675.786 85.629C689.136 90.3731 709.996 99.8093 724.077 115.788C728.071 120.333 731.029 125.693 732.745 131.495C734.46 137.297 734.892 143.402 734.011 149.388L727.701 192.294H712.708L713.386 153.194C713.421 149.061 712.124 145.027 709.686 141.689C707.249 138.351 703.801 135.887 699.853 134.66C683.66 129.708 658.811 118.708 658.785 97.8543C658.757 95.7996 659.226 93.7686 660.151 91.9337C661.076 90.0988 662.431 88.5142 664.1 87.3142C665.768 86.1143 667.702 85.3346 669.736 85.0412C671.771 84.7478 673.846 84.9495 675.786 85.629Z" fill="#68E1FD"/>
<path opacity="0.2" d="M675.786 85.629C689.136 90.3731 709.996 99.8093 724.077 115.788C728.071 120.333 731.029 125.693 732.745 131.495C734.46 137.297 734.892 143.402 734.011 149.388L727.701 192.294H712.708L713.386 153.194C713.421 149.061 712.124 145.027 709.686 141.689C707.249 138.351 703.801 135.887 699.853 134.66C683.66 129.708 658.811 118.708 658.785 97.8543C658.757 95.7996 659.226 93.7686 660.151 91.9337C661.076 90.0988 662.431 88.5142 664.1 87.3142C665.768 86.1143 667.702 85.3346 669.736 85.0412C671.771 84.7478 673.846 84.9495 675.786 85.629Z" fill="white"/>
<path opacity="0.08" d="M638.837 427.884H541.5V439.719H638.837V427.884Z" fill="black"/>
</svg>
