<svg width="57" height="57" viewBox="0 0 57 57" fill="none" xmlns="http://www.w3.org/2000/svg">
<path d="M45.7662 24.5504C45.3866 24.551 45.0227 24.7021 44.7543 24.9705C44.4858 25.239 44.3347 25.6029 44.3341 25.9825V49.3335H40.2064L32.2834 32.851C33.4139 31.5732 33.8984 29.7991 33.5302 28.101C33.3601 27.2617 32.9939 26.4745 32.4614 25.8037C31.929 25.133 31.2454 24.5977 30.4665 24.2416V22.3131C30.4719 22.0462 30.424 21.7808 30.3258 21.5326C30.2275 21.2843 30.0808 21.0581 29.8943 20.8671C29.7077 20.6761 29.485 20.5241 29.2391 20.4201C28.9932 20.3161 28.729 20.262 28.462 20.2611C28.1011 20.2609 27.7467 20.3577 27.436 20.5414C27.1259 20.7303 26.8718 20.9984 26.6998 21.3182C26.5278 21.6379 26.4442 21.9978 26.4575 22.3606V24.0706C25.2657 24.5033 24.2616 25.3372 23.6172 26.4291C22.9729 27.5211 22.7285 28.8032 22.9259 30.0556C23.094 31.1329 23.5832 32.1345 24.3295 32.9294L16.7057 49.3335H9.72325C8.47381 49.3254 7.27811 48.8243 6.39616 47.9392C5.51421 47.0542 5.01735 45.8567 5.01362 44.6072V11.9154C4.99937 14.5326 7.11075 16.6654 9.73037 16.6796C9.83495 16.6799 9.9395 16.6767 10.0439 16.6701H45.0632C45.0632 16.6701 51.0839 16.1524 51.8605 20.3276C51.5722 20.3569 51.3048 20.4916 51.1097 20.706C50.9147 20.9203 50.8057 21.1992 50.8036 21.489C50.8036 23.1776 49.4285 24.5528 47.7114 24.5528H45.7662V24.5504ZM40.9022 53.5254C41.1698 54.0766 41.2075 54.7114 41.0071 55.2904C40.8067 55.8694 40.3845 56.3451 39.8335 56.6129C39.5349 56.7545 39.2092 56.8298 38.8787 56.8338C38.6212 56.8407 38.3644 56.8046 38.1187 56.7269C38.0617 56.7079 38.0095 56.677 37.9525 56.6533C37.7594 56.5737 37.578 56.4682 37.4134 56.3398C37.354 56.2923 37.2946 56.2495 37.2424 56.1973C37.0377 56.0108 36.8687 55.7887 36.7436 55.5417L33.7606 49.3335L30.0604 41.6266C29.9122 41.311 29.6771 41.0441 29.3827 40.8573C29.0882 40.6705 28.7466 40.5716 28.3979 40.5721H28.3931C28.042 40.5732 27.6982 40.6726 27.4006 40.8589C27.103 41.0453 26.8635 41.3112 26.7092 41.6266L23.123 49.3335L20.1946 55.6177C20.0304 55.9956 19.768 56.3226 19.4347 56.5648C19.1015 56.807 18.7095 56.9557 18.2994 56.9952C18.1497 57.0071 18.0049 56.9905 17.86 56.9739C17.7792 56.9668 17.6961 56.962 17.6154 56.9454C17.5014 56.9216 17.3897 56.8789 17.2781 56.8385C17.2069 56.81 17.1356 56.791 17.0644 56.7578C16.9477 56.696 16.8365 56.6245 16.7319 56.544C16.682 56.5084 16.625 56.4799 16.5751 56.4395C16.4232 56.3107 16.2883 56.1631 16.1737 56.0001C15.9412 55.6599 15.8033 55.264 15.7741 54.8529C15.7448 54.4419 15.8254 54.0304 16.0075 53.6607L18.0167 49.3335L25.7782 32.6349C24.8764 31.97 24.2724 30.977 24.0967 29.8704C23.7286 27.5429 25.3151 25.3579 27.6426 24.9874V22.3131C27.6365 22.1639 27.6702 22.0156 27.7403 21.8837C27.8104 21.7518 27.9144 21.641 28.0416 21.5626C28.1689 21.4872 28.3141 21.4473 28.462 21.4473C28.6099 21.4473 28.7551 21.4872 28.8824 21.5626C29.0091 21.6413 29.1127 21.7523 29.1824 21.8841C29.2521 22.016 29.2854 22.1641 29.279 22.3131V25.0657L29.3099 25.08C30.0722 25.2899 30.7615 25.7068 31.3015 26.2844C31.8414 26.8621 32.2109 27.578 32.3689 28.3527C32.5381 29.1314 32.4844 29.9419 32.2138 30.6913C31.9433 31.4408 31.4669 32.0988 30.8394 32.5898L38.8882 49.3335L40.9022 53.5254ZM30.837 29.2267C30.8398 28.8833 30.7749 28.5426 30.6459 28.2243C30.5169 27.9059 30.3264 27.6161 30.0853 27.3715C29.8442 27.1268 29.5572 26.9321 29.2407 26.7985C28.9243 26.6649 28.5846 26.595 28.2411 26.5929C27.5426 26.5928 26.8721 26.8675 26.3744 27.3576C25.8873 27.844 25.6117 28.5028 25.6072 29.1911C25.6047 29.5344 25.6699 29.8748 25.7991 30.1929C25.9282 30.511 26.1187 30.8005 26.3598 31.0449C26.6009 31.2893 26.8878 31.4837 27.2041 31.6172C27.5204 31.7506 27.8598 31.8204 28.2031 31.8226H28.2221C28.9125 31.8233 29.5751 31.5506 30.0651 31.0642C30.5551 30.5777 30.8326 29.9172 30.837 29.2267ZM28.3979 41.7596C28.2721 41.7587 28.1485 41.7926 28.0407 41.8575C27.933 41.9225 27.8454 42.016 27.7875 42.1278L24.4316 49.3335H32.4449L28.9845 42.1301C28.9316 42.0193 28.8485 41.9257 28.7447 41.8602C28.6409 41.7946 28.5206 41.7598 28.3979 41.7596ZM47.7375 25.7379H45.7662C45.7014 25.7379 45.6391 25.7636 45.5933 25.8095C45.5474 25.8554 45.5216 25.9176 45.5216 25.9825V56.6438C45.5215 56.7058 45.545 56.7657 45.5873 56.8111C45.6296 56.8565 45.6877 56.8842 45.7496 56.8884H47.7541C48.8787 56.884 49.9558 56.4341 50.7495 55.6373C51.5431 54.8406 51.9888 53.7618 51.9887 52.6371V21.4866C51.9887 22.6141 51.5408 23.6954 50.7436 24.4927C49.9463 25.29 48.865 25.7379 47.7375 25.7379ZM6.19875 11.9154V11.9581C6.20681 12.8923 6.58148 13.7859 7.24205 14.4465C7.90261 15.107 8.79622 15.4817 9.73037 15.4897C9.83407 15.4868 9.93778 15.4844 10.0415 15.4826H12.7229C13.1673 12.3974 14.5218 9.51478 16.6131 7.20337H9.73512C8.6893 7.2089 7.67479 7.56081 6.85019 8.20407C6.02558 8.84734 5.43737 9.74572 5.1775 10.7588C5.75225 10.8443 6.19875 11.3169 6.19875 11.913V11.9154ZM21.2515 5.03025L18.7862 0.779C18.741 0.700214 18.7172 0.610961 18.7172 0.520125C18.7172 0.429289 18.741 0.340036 18.7862 0.26125C18.8343 0.185625 18.8996 0.122498 18.9768 0.0770758C19.054 0.0316531 19.1409 0.00523515 19.2304 0C19.3207 0.0012207 19.4092 0.0259541 19.4871 0.071764C19.5649 0.117574 19.6295 0.18288 19.6745 0.26125L22.1682 4.57187C24.1541 3.67995 26.3064 3.21881 28.4834 3.21881C30.6603 3.21881 32.8126 3.67995 34.7985 4.57187L37.278 0.26125C37.3566 0.164767 37.4671 0.099649 37.5896 0.0777116C37.7121 0.0557742 37.8384 0.0784714 37.9455 0.141685C38.0527 0.204898 38.1337 0.304438 38.1737 0.422242C38.2138 0.540046 38.2103 0.668307 38.1639 0.78375L35.7176 5.035C37.6593 6.10159 39.3315 7.59776 40.6067 9.40928C41.8819 11.2208 42.7263 13.2997 43.0754 15.4874L13.8937 15.485C14.2429 13.298 15.0871 11.2197 16.3618 9.40861C17.6366 7.59755 19.3082 6.10163 21.2491 5.035L21.2515 5.03025ZM34.0219 11.2527C34.0256 11.4134 34.0609 11.5717 34.1258 11.7187C34.1907 11.8657 34.2839 11.9984 34.4002 12.1094C34.5164 12.2203 34.6534 12.3073 34.8032 12.3653C34.9531 12.4233 35.1129 12.4512 35.2735 12.4474C35.4343 12.4477 35.5936 12.4163 35.7423 12.355C35.891 12.2936 36.0261 12.2036 36.1399 12.09C36.2537 11.9764 36.3441 11.8414 36.4057 11.6929C36.4673 11.5443 36.499 11.3851 36.499 11.2242C36.4982 10.98 36.425 10.7415 36.2889 10.5387C36.1527 10.3359 35.9596 10.178 35.7338 10.0848C35.508 9.99158 35.2597 9.96728 35.0202 10.0149C34.7806 10.0626 34.5605 10.1801 34.3876 10.3526C34.2681 10.47 34.174 10.6107 34.1111 10.7659C34.0481 10.9212 34.0178 11.0853 34.0219 11.2527ZM20.444 11.2385C20.4455 11.3991 20.4787 11.5579 20.5416 11.7057C20.6045 11.8535 20.6959 11.9874 20.8106 12.0999C20.9253 12.2124 21.061 12.3012 21.21 12.3612C21.359 12.4212 21.5184 12.4513 21.679 12.4498C21.8406 12.452 22.0009 12.4219 22.1506 12.3611C22.3004 12.3003 22.4364 12.2101 22.5506 12.0959C22.6821 11.9856 22.7891 11.8492 22.865 11.6953C22.9409 11.5414 22.984 11.3734 22.9915 11.202C22.999 11.0305 22.9707 10.8594 22.9085 10.6995C22.8463 10.5396 22.7516 10.3943 22.6302 10.273C22.5089 10.1517 22.3637 10.0569 22.2037 9.99473C22.0438 9.93254 21.8727 9.90429 21.7013 9.91177C21.5299 9.91926 21.3619 9.96232 21.208 10.0382C21.0541 10.1141 20.9177 10.2212 20.8074 10.3526C20.6903 10.4683 20.5978 10.6063 20.5354 10.7585C20.473 10.9107 20.4419 11.074 20.444 11.2385Z" fill="white" fill-opacity="0.8"/>
</svg>
