<svg width="64" height="50" viewBox="0 0 64 50" fill="none" xmlns="http://www.w3.org/2000/svg">
<path d="M13.5857 0.0628662C10.019 0.0628662 7.38288 3.17344 7.50232 6.54416C7.61344 9.7848 7.46621 13.9802 6.4051 17.4035C5.34121 20.8351 3.54399 23.0103 0.605103 23.2898V26.4391C3.54399 26.7186 5.34121 28.8938 6.4051 32.3254C7.46621 35.7459 7.61344 39.9441 7.49955 43.182C7.38288 46.5555 10.019 49.666 13.5884 49.666H50.1273C53.694 49.666 56.3329 46.5555 56.2162 43.182C56.1023 39.9441 56.2495 35.7459 57.3079 32.3254C58.3745 28.8938 60.169 26.7186 63.1051 26.4391V23.2898C60.1662 23.0103 58.3745 20.8351 57.3079 17.4035C56.2495 13.983 56.1023 9.7848 56.2162 6.54416C56.3329 3.17344 53.694 0.0628662 50.1273 0.0628662H13.5857ZM42.9773 30.5958C42.9773 35.2395 39.5023 38.0567 33.7329 38.0567H23.9107C23.7714 38.0571 23.6335 38.0301 23.5048 37.9773C23.3761 37.9244 23.2591 37.8468 23.1605 37.7489C23.0619 37.6509 22.9837 37.5346 22.9304 37.4065C22.877 37.2784 22.8495 37.141 22.8495 37.0023V12.7266C22.8495 12.5879 22.877 12.4505 22.9304 12.3224C22.9837 12.1943 23.0619 12.078 23.1605 11.98C23.2591 11.8821 23.3761 11.8045 23.5048 11.7516C23.6335 11.6988 23.7714 11.6718 23.9107 11.6722H33.6745C38.4857 11.6722 41.644 14.268 41.644 18.2559C41.644 21.051 39.519 23.5582 36.8134 23.9955V24.1422C40.4968 24.5434 42.9773 27.0867 42.9773 30.5958ZM32.6607 15.0152H27.0607V22.8968H31.7773C35.4245 22.8968 37.4329 21.4356 37.4329 18.8204C37.4329 16.3713 35.7051 15.018 32.6607 15.018V15.0152ZM27.0607 26.024V34.7109H32.8662C36.6634 34.7109 38.6718 33.1916 38.6718 30.3384C38.6718 27.488 36.6079 26.024 32.6218 26.024H27.0607Z" fill="white" fill-opacity="0.8"/>
</svg>
