<svg width="36" height="52" viewBox="0 0 36 52" fill="none" xmlns="http://www.w3.org/2000/svg">
<path d="M18.1045 1.06287H9.85541C7.66729 1.06287 5.5688 1.93209 4.02156 3.47933C2.47433 5.02656 1.6051 7.12506 1.6051 9.31318C1.6051 11.5013 2.47433 13.5998 4.02156 15.147C5.5688 16.6943 7.66729 17.5635 9.85541 17.5635H18.1045V1.06287Z" fill="#2A2B3A" stroke="white" stroke-opacity="0.8" stroke-width="1.5"/>
<path d="M18.1045 17.561H9.85541C7.66729 17.561 5.5688 18.4303 4.02156 19.9775C2.47433 21.5247 1.6051 23.6232 1.6051 25.8113C1.6051 27.9995 2.47433 30.098 4.02156 31.6452C5.5688 33.1924 7.66729 34.0617 9.85541 34.0617H18.1045V17.561Z" fill="#2A2B3A" stroke="white" stroke-opacity="0.8" stroke-width="1.5"/>
<path d="M34.6051 25.8126C34.6051 28.0007 33.7359 30.0992 32.1886 31.6464C30.6414 33.1936 28.5429 34.0629 26.3548 34.0629C24.1667 34.0629 22.0682 33.1936 20.5209 31.6464C18.9737 30.0992 18.1045 28.0007 18.1045 25.8126C18.1045 23.6244 18.9737 21.5259 20.5209 19.9787C22.0682 18.4315 24.1667 17.5623 26.3548 17.5623C28.5429 17.5623 30.6414 18.4315 32.1886 19.9787C33.7359 21.5259 34.6051 23.6244 34.6051 25.8126ZM9.8554 34.0641H18.1045V42.3132C18.104 43.9446 17.6198 45.5392 16.713 46.8954C15.8063 48.2517 14.5178 49.3086 13.0105 49.9326C11.5031 50.5565 9.84457 50.7195 8.24457 50.401C6.64457 50.0824 5.17495 49.2966 4.02155 48.1428C2.86814 46.9891 2.08274 45.5192 1.76465 43.9191C1.44656 42.319 1.61006 40.6605 2.23449 39.1534C2.85891 37.6462 3.91622 36.358 5.27272 35.4517C6.62922 34.5454 8.22399 34.0641 9.8554 34.0641Z" fill="#2A2B3A" stroke="white" stroke-opacity="0.8" stroke-width="1.5"/>
<path d="M18.1045 1.06287H26.3536C28.5417 1.06287 30.6402 1.93209 32.1874 3.47933C33.7346 5.02656 34.6039 7.12506 34.6039 9.31318C34.6039 11.5013 33.7346 13.5998 32.1874 15.147C30.6402 16.6943 28.5417 17.5635 26.3536 17.5635H18.1045V1.06287Z" fill="#2A2B3A" stroke="white" stroke-opacity="0.8" stroke-width="1.5"/>
</svg>
