<svg width="54" height="53" viewBox="0 0 54 53" fill="none" xmlns="http://www.w3.org/2000/svg">
<path d="M27.1051 0.0628662C23.6251 0.0628662 20.1791 0.751553 16.964 2.0896C13.7489 3.42766 10.8275 5.38887 8.36677 7.86127C3.39706 12.8545 0.605103 19.6268 0.605103 26.6883C0.605103 38.4567 8.2106 48.4412 18.7311 51.9824C20.0561 52.1954 20.4801 51.37 20.4801 50.6511V46.1514C13.1396 47.749 11.5761 42.5836 11.5761 42.5836C10.3571 39.4951 8.6346 38.6697 8.6346 38.6697C6.2231 37.0189 8.8201 37.0722 8.8201 37.0722C11.4701 37.2586 12.8746 39.8146 12.8746 39.8146C15.1801 43.8617 19.0756 42.6635 20.5861 42.0245C20.8246 40.2939 21.5136 39.1223 22.2556 38.4567C16.3726 37.7911 10.1981 35.5013 10.1981 25.357C10.1981 22.4016 11.2051 20.0319 12.9276 18.1415C12.6626 17.4759 11.7351 14.7068 13.1926 11.1124C13.1926 11.1124 15.4186 10.3935 20.4801 13.8282C22.5736 13.2424 24.8526 12.9496 27.1051 12.9496C29.3576 12.9496 31.6366 13.2424 33.7301 13.8282C38.7916 10.3935 41.0176 11.1124 41.0176 11.1124C42.4751 14.7068 41.5476 17.4759 41.2826 18.1415C43.0051 20.0319 44.0121 22.4016 44.0121 25.357C44.0121 35.5279 37.8111 37.7644 31.9016 38.4301C32.8556 39.2555 33.7301 40.8796 33.7301 43.3558V50.6511C33.7301 51.37 34.1541 52.222 35.5056 51.9824C46.0261 48.4146 53.6051 38.4567 53.6051 26.6883C53.6051 23.1918 52.9197 19.7295 51.5879 16.4992C50.2562 13.2688 48.3042 10.3337 45.8434 7.86127C43.3827 5.38887 40.4613 3.42766 37.2462 2.0896C34.0311 0.751553 30.5851 0.0628662 27.1051 0.0628662Z" fill="white" fill-opacity="0.8"/>
</svg>
