<svg width="52" height="52" viewBox="0 0 52 52" fill="none" xmlns="http://www.w3.org/2000/svg">
<path fill-rule="evenodd" clip-rule="evenodd" d="M0.605103 0.0628662H51.6051V51.0629H0.605103V0.0628662ZM39.5925 42.8179C37.2274 42.8179 35.8907 41.5854 34.8644 39.9066L30.9692 42.1697C32.376 44.9492 35.2511 47.07 39.703 47.07C44.2547 47.07 47.6441 44.707 47.6441 40.3911C47.6441 36.3897 45.3449 34.6111 41.2734 32.8622L40.0749 32.3501C38.0179 31.4576 37.1275 30.8775 37.1275 29.4389C37.1275 28.2765 38.02 27.3861 39.4225 27.3861C40.7974 27.3861 41.6835 27.9662 42.5059 29.4389L46.2374 27.044C44.6585 24.2666 42.4697 23.2062 39.4225 23.2062C35.1427 23.2062 32.4036 25.9432 32.4036 29.5387C32.4036 33.4381 34.6986 35.2847 38.1581 36.7574L39.3566 37.2716C41.5432 38.2279 42.8459 38.8101 42.8459 40.4527C42.8459 41.8255 41.5772 42.8179 39.5925 42.8179ZM21.02 42.786C19.3731 42.786 18.6867 41.6597 17.9345 40.321L14.033 42.684C15.1635 45.0767 17.3862 47.0615 21.2219 47.0615C25.4697 47.0615 28.3789 44.8026 28.3789 39.8407V23.4782H23.587V39.777C23.587 42.1719 22.5925 42.786 21.0179 42.786H21.02Z" fill="white" fill-opacity="0.8"/>
</svg>
