<svg width="51" height="51" viewBox="0 0 51 51" fill="none" xmlns="http://www.w3.org/2000/svg">
<g clip-path="url(#clip0_384_13)">
<path d="M50.8669 8.27648C50.5339 7.87229 50.1025 7.32779 49.6774 6.777L49.5475 6.59899V6.57805C49.024 5.86601 48.647 5.97072 48.2281 6.07543C47.8093 6.18014 38.2386 7.89742 37.6522 7.96025C37.0658 8.06496 37.2543 8.3791 37.5056 8.71418L45.8826 20.2367L50.8669 19.0451V8.27648ZM0.646987 31.1121L9.71505 28.9341C10.448 28.7665 10.2596 28.6828 9.90353 28.0335L0.646987 12.0461V31.1121ZM7.30667 50.3246H22.3643C20.3957 47.1184 15.0344 37.4388 12.2491 32.3896H12.2281V32.3686L0.605103 35.4074V43.6419C0.617668 47.3341 3.61243 50.3246 7.30667 50.3246Z" fill="white" fill-opacity="0.8"/>
<path d="M50.8669 26.8168V22.2283L48.0397 23.0053L48.2491 23.2985L50.8669 26.8168Z" fill="white" fill-opacity="0.8"/>
<path d="M42.825 20.9718L33.3381 7.52046C32.5423 6.41051 33.3381 5.90789 34.6365 5.69847C35.8931 5.4681 46.8669 3.62517 47.8302 3.49952C48.6051 3.37386 49.2543 3.12255 50.3433 4.12779C49.3381 1.73826 46.9716 0.0628662 44.2072 0.0628662H7.30668C7.30668 0.0628662 7.3004 0.0628662 7.29621 0.0628662C4.05433 0.0628662 1.35485 2.3791 0.751709 5.48904L14.1339 27.843L42.825 20.9718ZM50.8669 31.7404L45.5056 24.4084C45.1706 23.8849 44.9821 23.7801 44.1653 24.0524L16.1863 31.3424C16.1863 31.3424 24.7727 46.2178 25.4219 47.1602C26.092 48.1236 26.4899 48.0398 27.0135 47.8304C27.3905 47.6629 43.3486 42.2576 50.8669 39.7215V31.7404ZM50.846 44.1655L33.6941 50.3037H44.2072C47.7255 50.3037 50.5946 47.5791 50.846 44.1655Z" fill="white" fill-opacity="0.8"/>
</g>
<defs>
<clipPath id="clip0_384_13">
<rect width="50.2618" height="50.2618" fill="white" transform="translate(0.605103 0.0628662)"/>
</clipPath>
</defs>
</svg>
