<svg width="53" height="53" viewBox="0 0 53 53" fill="none" xmlns="http://www.w3.org/2000/svg">
<path d="M40.4176 0.0628662H12.7926C6.06163 0.0628662 0.605103 5.5194 0.605103 12.2504V39.8754C0.605103 46.6063 6.06163 52.0629 12.7926 52.0629H40.4176C47.1486 52.0629 52.6051 46.6063 52.6051 39.8754V12.2504C52.6051 5.5194 47.1486 0.0628662 40.4176 0.0628662Z" fill="white" fill-opacity="0.8"/>
<mask id="mask0_390_31" style="mask-type:luminance" maskUnits="userSpaceOnUse" x="8" y="7" width="37" height="38">
<path d="M8.32385 7.78162H44.8864V44.3441H8.32385V7.78162Z" fill="white"/>
</mask>
<g mask="url(#mask0_390_31)">
<path fill-rule="evenodd" clip-rule="evenodd" d="M42.0022 36.2618C40.0136 36.2065 38.4709 36.4103 37.178 36.9542C36.8057 37.1037 36.2083 37.1037 36.1591 37.5723C36.3582 37.769 36.3822 38.0907 36.5566 38.3633C36.8546 38.8579 37.3775 39.5242 37.8495 39.8699L39.4408 41.007C40.4105 41.5995 41.5046 41.9458 42.4493 42.5389C42.9965 42.8851 43.5433 43.3299 44.0905 43.701C44.3692 43.8987 44.538 44.2206 44.8864 44.3435V44.2688C44.7125 44.0471 44.6623 43.726 44.4891 43.4778L43.7422 42.7616C43.0217 41.7979 42.1259 40.957 41.1562 40.2658C40.3604 39.722 38.6204 38.9808 38.297 38.0669L38.2481 38.0115C38.7943 37.9562 39.4408 37.7639 39.9634 37.6156C40.8095 37.394 41.5797 37.4427 42.4493 37.2205L43.6437 36.8744V36.6528C43.196 36.2081 42.8728 35.6148 42.4007 35.1952C41.1328 34.1078 39.7394 33.0449 38.297 32.1554C37.5264 31.6614 36.5314 31.3394 35.711 30.9202C35.4118 30.7717 34.9152 30.6976 34.7413 30.4506C34.2926 29.9078 34.0446 29.1904 33.7214 28.5475L31.6826 24.2477C31.2352 23.2839 30.9609 22.3201 30.4147 21.4306C27.8531 17.2294 25.0677 14.6844 20.7907 12.188C19.8711 11.669 18.7771 11.4458 17.6138 11.1744L15.7491 11.0749C15.3506 10.902 14.9531 10.4322 14.6049 10.2096C13.1875 9.31988 9.53207 7.39263 8.48679 9.93271C7.81546 11.5388 9.4819 13.1201 10.0476 13.9361C10.4711 14.5044 11.0173 15.1467 11.3165 15.7894C11.4837 16.2093 11.5396 16.6545 11.714 17.0994C12.1114 18.1865 12.4847 19.3979 13.0069 20.4115C13.2856 20.9305 13.5783 21.4749 13.9265 21.9441C14.1255 22.221 14.4739 22.3396 14.548 22.7842C14.1997 23.2788 14.1757 24.0194 13.9767 24.6381C13.0811 27.4307 13.4294 30.8903 14.6973 32.9464C15.0959 33.5639 16.0349 34.9236 17.3091 34.4042C18.4281 33.9593 18.1785 32.5509 18.5017 31.3151C18.5768 31.0189 18.5269 30.8211 18.6755 30.6228V30.6783L19.6954 32.7292C20.4663 33.9401 21.8096 35.2006 22.928 36.0414C23.5243 36.4862 23.997 37.2528 24.7427 37.5242V37.4494H24.6937C24.5442 37.2278 24.3202 37.1281 24.1213 36.9552C23.6738 36.5106 23.1766 35.9666 22.8282 35.4726C21.7844 34.0889 20.8648 32.5564 20.0438 30.975C19.6455 30.2091 19.2971 29.3687 18.9749 28.6027C18.8244 28.306 18.8244 27.8605 18.5764 27.7133C18.2029 28.256 17.6569 28.7268 17.382 29.3937C16.9094 30.4561 16.8604 31.766 16.6865 33.1253C16.5862 33.1501 16.6307 33.1253 16.5862 33.1806C15.7914 32.9835 15.5172 32.167 15.2192 31.4757C14.4733 29.7211 14.3484 26.904 14.9949 24.8774C15.1688 24.3584 15.9157 22.7273 15.6175 22.2331C15.4672 21.7635 14.9709 21.4921 14.6967 21.121C14.3736 20.6514 14.0264 20.0587 13.8024 19.5397C13.206 18.155 12.9078 16.6234 12.2607 15.2396C11.9614 14.5969 11.4398 13.9294 11.0167 13.3369C10.544 12.6694 10.023 12.1996 9.64968 11.4092C9.52537 11.1324 9.35149 10.6926 9.55035 10.3956C9.59951 10.198 9.69965 10.1188 9.8977 10.0745C10.2207 9.79743 11.1416 10.1486 11.4648 10.2959C12.3844 10.667 13.1552 11.0127 13.9261 11.5311C14.2744 11.7781 14.6478 12.2479 15.0953 12.372H15.6181C16.4139 12.5447 17.3085 12.4273 18.0536 12.6489C19.3719 13.0698 20.565 13.6869 21.6351 14.3547C24.8922 16.4059 27.5785 19.322 29.393 22.807C29.6912 23.3753 29.8155 23.8943 30.0897 24.4874C30.6126 25.6989 31.2591 26.9341 31.7802 28.1209C32.303 29.2824 32.8 30.4695 33.5459 31.4331C33.9193 31.9521 35.4106 32.2234 36.0817 32.4954C36.5794 32.717 37.3496 32.9165 37.7983 33.1879C38.6431 33.7069 39.4887 34.3 40.284 34.8683C40.6813 35.1641 41.9254 35.7822 41.9994 36.2752L42.0022 36.2618ZM16.6435 14.7868C16.3 14.7838 15.9576 14.8253 15.6248 14.9103V14.9657H15.6738C15.8728 15.3612 16.2212 15.6332 16.4696 15.9793L17.042 17.1656L17.0912 17.1103C17.4393 16.8633 17.6138 16.4678 17.6138 15.8753C17.4645 15.7025 17.4399 15.529 17.3156 15.3561C17.1663 15.1091 16.8432 14.985 16.6435 14.788V14.7868Z" fill="#2A2B3A"/>
</g>
</svg>
