<svg width="54" height="54" viewBox="0 0 54 54" fill="none" xmlns="http://www.w3.org/2000/svg">
<path d="M41.4919 0.0628662H13.1215C6.20887 0.0628662 0.605103 5.66664 0.605103 12.5792V40.9497C0.605103 47.8623 6.20887 53.4661 13.1215 53.4661H41.4919C48.4045 53.4661 54.0083 47.8623 54.0083 40.9497V12.5792C54.0083 5.66664 48.4045 0.0628662 41.4919 0.0628662Z" fill="white" fill-opacity="0.8"/>
<path d="M10.8598 20.9748H16.7859C18.5253 20.9894 19.7857 21.4909 20.5671 22.4785C21.3485 23.466 21.6064 24.8149 21.341 26.525C21.238 27.3065 21.0093 28.0729 20.6555 28.8247C20.3163 29.5765 19.8449 30.2545 19.2404 30.859C18.5031 31.6254 17.7146 32.1119 16.8743 32.3184C16.0341 32.525 15.1642 32.628 14.2651 32.628H11.6116L10.7714 36.8293H7.69775L10.8598 20.9748ZM13.4469 23.4956L12.1202 30.1293C12.2087 30.1439 12.2971 30.1514 12.3856 30.1514H12.6951C14.1103 30.166 15.2898 30.0263 16.2331 29.7313C17.1764 29.4217 17.8106 28.3457 18.1347 26.5029C18.4001 24.9551 18.1347 24.0631 17.3387 23.8273C16.5573 23.5916 15.5772 23.481 14.3978 23.4956C14.2209 23.5102 14.0515 23.5178 13.8892 23.5178H13.4248L13.4469 23.4956ZM24.8423 16.7514H27.8938L27.0314 20.9748H29.7733C31.2769 21.0045 32.3972 21.314 33.1344 21.9036C33.8862 22.4931 34.1073 23.6137 33.7977 25.2646L32.3162 32.628H29.2205L30.6357 25.5963C30.783 24.8591 30.7387 24.3359 30.503 24.0263C30.2673 23.7168 29.7587 23.562 28.9773 23.562L26.5228 23.5399L24.7096 32.628H21.6581L24.8423 16.7514ZM37.0745 20.9748H43.0006C44.74 20.9894 46.0004 21.4909 46.7818 22.4785C47.5632 23.466 47.8211 24.8149 47.5557 26.525C47.4527 27.3065 47.224 28.0729 46.8703 28.8247C46.5311 29.5765 46.0596 30.2545 45.4551 30.859C44.7179 31.6254 43.9293 32.1119 43.0891 32.3184C42.2488 32.525 41.3789 32.628 40.4798 32.628H37.8263L36.9861 36.8293H33.9125L37.0745 20.9748ZM39.6617 23.4956L38.3349 30.1293C38.4234 30.1439 38.5118 30.1514 38.6003 30.1514H38.9098C40.325 30.166 41.5045 30.0263 42.4478 29.7313C43.3911 29.4217 44.0253 28.3457 44.3495 26.5029C44.6148 24.9551 44.3495 24.0631 43.5534 23.8273C42.772 23.5916 41.7919 23.481 40.6125 23.4956C40.4356 23.5102 40.2662 23.5178 40.1039 23.5178H39.6395L39.6617 23.4956Z" fill="#2A2B3A"/>
</svg>
