<svg width="852" height="55" viewBox="0 0 852 55" fill="none" xmlns="http://www.w3.org/2000/svg">
<path d="M38.4219 15.6538L38.9574 9.81283H9.37325L10.9462 27.6361H31.4275L30.6912 35.2461L24.0984 37.015L17.539 35.2461L17.1039 30.5733H11.2474L11.9836 39.8521L24.0984 43.1898H24.2322V43.1564L36.2466 39.8521L37.9199 21.695H16.3677L15.8657 15.6538H38.4219ZM0.605103 0H47.7255L43.4418 47.9961L24.0984 53.4031L4.88878 47.9961L0.605103 0Z" fill="white" fill-opacity="0.8"/>
<path d="M83.8511 0L88.1424 48.0628L107.411 53.4031L126.673 48.0662L130.971 0H83.8511ZM121.796 15.7172L121.255 21.7551L119.622 39.8588L107.411 43.2031L107.405 43.2065L95.2037 39.8554L94.3488 30.3897H100.326L100.771 35.3028L107.405 37.0785L107.411 37.0718L114.052 35.2961L114.957 27.1154L94.0627 27.1722L93.4704 21.5749L115.459 21.3212L115.903 15.33L92.8814 15.3935L92.4943 9.82618H122.328L121.796 15.7172Z" fill="white" fill-opacity="0.8"/>
<path fill-rule="evenodd" clip-rule="evenodd" d="M164.605 0.0628662H215.605V51.0629H164.605V0.0628662ZM203.592 42.8179C201.227 42.8179 199.891 41.5854 198.864 39.9066L194.969 42.1697C196.376 44.9492 199.251 47.07 203.703 47.07C208.255 47.07 211.644 44.707 211.644 40.3911C211.644 36.3897 209.345 34.6111 205.273 32.8622L204.075 32.3501C202.018 31.4576 201.127 30.8775 201.127 29.4389C201.127 28.2765 202.02 27.3861 203.422 27.3861C204.797 27.3861 205.683 27.9662 206.506 29.4389L210.237 27.044C208.658 24.2666 206.47 23.2062 203.422 23.2062C199.143 23.2062 196.404 25.9432 196.404 29.5387C196.404 33.4381 198.699 35.2847 202.158 36.7574L203.357 37.2716C205.543 38.2279 206.846 38.8101 206.846 40.4527C206.846 41.8255 205.577 42.8179 203.592 42.8179ZM185.02 42.786C183.373 42.786 182.687 41.6597 181.934 40.321L178.033 42.684C179.163 45.0767 181.386 47.0615 185.222 47.0615C189.47 47.0615 192.379 44.8026 192.379 39.8407V23.4782H187.587V39.777C187.587 42.1719 186.592 42.786 185.018 42.786H185.02Z" fill="white" fill-opacity="0.8"/>
<path d="M289.492 0.0628662H261.121C254.209 0.0628662 248.605 5.66664 248.605 12.5792V40.9497C248.605 47.8623 254.209 53.4661 261.121 53.4661H289.492C296.405 53.4661 302.008 47.8623 302.008 40.9497V12.5792C302.008 5.66664 296.405 0.0628662 289.492 0.0628662Z" fill="white" fill-opacity="0.8"/>
<path d="M258.86 20.9748H264.786C266.525 20.9894 267.786 21.4909 268.567 22.4785C269.349 23.466 269.606 24.8149 269.341 26.525C269.238 27.3065 269.009 28.0729 268.656 28.8247C268.316 29.5765 267.845 30.2545 267.24 30.859C266.503 31.6254 265.715 32.1119 264.874 32.3184C264.034 32.525 263.164 32.628 262.265 32.628H259.612L258.771 36.8293H255.698L258.86 20.9748ZM261.447 23.4956L260.12 30.1293C260.209 30.1439 260.297 30.1514 260.386 30.1514H260.695C262.11 30.166 263.29 30.0263 264.233 29.7313C265.176 29.4217 265.811 28.3457 266.135 26.5029C266.4 24.9551 266.135 24.0631 265.339 23.8273C264.557 23.5916 263.577 23.481 262.398 23.4956C262.221 23.5102 262.051 23.5178 261.889 23.5178H261.425L261.447 23.4956ZM272.842 16.7514H275.894L275.031 20.9748H277.773C279.277 21.0045 280.397 21.314 281.134 21.9036C281.886 22.4931 282.107 23.6137 281.798 25.2646L280.316 32.628H277.22L278.636 25.5963C278.783 24.8591 278.739 24.3359 278.503 24.0263C278.267 23.7168 277.759 23.562 276.977 23.562L274.523 23.5399L272.71 32.628H269.658L272.842 16.7514ZM285.075 20.9748H291.001C292.74 20.9894 294 21.4909 294.782 22.4785C295.563 23.466 295.821 24.8149 295.556 26.525C295.453 27.3065 295.224 28.0729 294.87 28.8247C294.531 29.5765 294.06 30.2545 293.455 30.859C292.718 31.6254 291.929 32.1119 291.089 32.3184C290.249 32.525 289.379 32.628 288.48 32.628H285.826L284.986 36.8293H281.912L285.075 20.9748ZM287.662 23.4956L286.335 30.1293C286.423 30.1439 286.512 30.1514 286.6 30.1514H286.91C288.325 30.166 289.504 30.0263 290.448 29.7313C291.391 29.4217 292.025 28.3457 292.349 26.5029C292.615 24.9551 292.349 24.0631 291.553 23.8273C290.772 23.5916 289.792 23.481 288.612 23.4956C288.436 23.5102 288.266 23.5178 288.104 23.5178H287.64L287.662 23.4956Z" fill="#2A2B3A"/>
<g clip-path="url(#clip0_384_17)">
<path d="M387.867 10.2765C387.534 9.87229 387.102 9.32779 386.677 8.777L386.548 8.59899V8.57805C386.024 7.86601 385.647 7.97072 385.228 8.07543C384.809 8.18014 375.239 9.89742 374.652 9.96025C374.066 10.065 374.254 10.3791 374.506 10.7142L382.883 22.2367L387.867 21.0451V10.2765ZM337.647 33.1121L346.715 30.9341C347.448 30.7665 347.26 30.6828 346.904 30.0335L337.647 14.0461V33.1121ZM344.307 52.3246H359.364C357.396 49.1184 352.034 39.4388 349.249 34.3896H349.228V34.3686L337.605 37.4074V45.6419C337.618 49.3341 340.612 52.3246 344.307 52.3246Z" fill="white" fill-opacity="0.8"/>
<path d="M387.867 28.8168V24.2283L385.04 25.0053L385.249 25.2985L387.867 28.8168Z" fill="white" fill-opacity="0.8"/>
<path d="M379.825 22.9718L370.338 9.52046C369.542 8.41051 370.338 7.90789 371.637 7.69847C372.893 7.4681 383.867 5.62517 384.83 5.49952C385.605 5.37386 386.254 5.12255 387.343 6.12779C386.338 3.73826 383.972 2.06287 381.207 2.06287H344.307C344.307 2.06287 344.3 2.06287 344.296 2.06287C341.054 2.06287 338.355 4.3791 337.752 7.48904L351.134 29.843L379.825 22.9718ZM387.867 33.7404L382.506 26.4084C382.171 25.8849 381.982 25.7801 381.165 26.0524L353.186 33.3424C353.186 33.3424 361.773 48.2178 362.422 49.1602C363.092 50.1236 363.49 50.0398 364.013 49.8304C364.39 49.6629 380.349 44.2576 387.867 41.7215V33.7404ZM387.846 46.1655L370.694 52.3037H381.207C384.726 52.3037 387.595 49.5791 387.846 46.1655Z" fill="white" fill-opacity="0.8"/>
</g>
<path d="M447.105 0.0628662C443.625 0.0628662 440.179 0.751553 436.964 2.0896C433.749 3.42766 430.828 5.38887 428.367 7.86127C423.397 12.8545 420.605 19.6268 420.605 26.6883C420.605 38.4567 428.211 48.4412 438.731 51.9824C440.056 52.1954 440.48 51.37 440.48 50.6511V46.1514C433.14 47.749 431.576 42.5836 431.576 42.5836C430.357 39.4951 428.635 38.6697 428.635 38.6697C426.223 37.0189 428.82 37.0722 428.82 37.0722C431.47 37.2586 432.875 39.8146 432.875 39.8146C435.18 43.8617 439.076 42.6635 440.586 42.0245C440.825 40.2939 441.514 39.1223 442.256 38.4567C436.373 37.7911 430.198 35.5013 430.198 25.357C430.198 22.4016 431.205 20.0319 432.928 18.1415C432.663 17.4759 431.735 14.7068 433.193 11.1124C433.193 11.1124 435.419 10.3935 440.48 13.8282C442.574 13.2424 444.853 12.9496 447.105 12.9496C449.358 12.9496 451.637 13.2424 453.73 13.8282C458.792 10.3935 461.018 11.1124 461.018 11.1124C462.475 14.7068 461.548 17.4759 461.283 18.1415C463.005 20.0319 464.012 22.4016 464.012 25.357C464.012 35.5279 457.811 37.7644 451.902 38.4301C452.856 39.2555 453.73 40.8796 453.73 43.3558V50.6511C453.73 51.37 454.154 52.222 455.506 51.9824C466.026 48.4146 473.605 38.4567 473.605 26.6883C473.605 23.1918 472.92 19.7295 471.588 16.4992C470.256 13.2688 468.304 10.3337 465.843 7.86127C463.383 5.38887 460.461 3.42766 457.246 2.0896C454.031 0.751553 450.585 0.0628662 447.105 0.0628662Z" fill="white" fill-opacity="0.8"/>
<path d="M545.864 8.24404L535.784 3.36932C535.214 3.09168 534.572 2.99956 533.948 3.10577C533.323 3.21198 532.747 3.51124 532.299 3.96192L512.993 21.6707L504.579 15.2567C504.2 14.9655 503.731 14.8173 503.255 14.8378C502.778 14.8583 502.324 15.0464 501.971 15.3691L499.276 17.838C499.066 18.0294 498.897 18.2629 498.781 18.5235C498.666 18.7842 498.606 19.0663 498.605 19.3517C498.604 19.6371 498.663 19.9195 498.777 20.1807C498.892 20.442 499.059 20.6763 499.269 20.8687L506.566 27.5628L499.269 34.2569C499.059 34.4493 498.892 34.6837 498.777 34.9449C498.663 35.2062 498.604 35.4886 498.605 35.774C498.606 36.0594 498.666 36.3414 498.781 36.6021C498.897 36.8628 499.066 37.0963 499.276 37.2876L501.971 39.7565C502.324 40.0793 502.778 40.2673 503.255 40.2879C503.731 40.3084 504.2 40.1601 504.579 39.8689L512.993 33.4473L532.309 51.1637C532.754 51.6144 533.329 51.9137 533.953 52.0199C534.576 52.1262 535.217 52.034 535.786 51.7563L545.875 46.8739C546.394 46.623 546.833 46.2294 547.139 45.7385C547.445 45.2476 547.607 44.6796 547.605 44.1002V11.0146C547.605 9.8356 546.927 8.75352 545.867 8.24096L545.864 8.24404ZM535.36 38.7484L520.702 27.5644L535.36 16.3804V38.7484Z" fill="white" fill-opacity="0.8"/>
<path d="M587.586 2.06287C584.019 2.06287 581.383 5.17344 581.502 8.54416C581.613 11.7848 581.466 15.9802 580.405 19.4035C579.341 22.8351 577.544 25.0103 574.605 25.2898V28.4391C577.544 28.7186 579.341 30.8938 580.405 34.3254C581.466 37.7459 581.613 41.9441 581.5 45.182C581.383 48.5555 584.019 51.666 587.588 51.666H624.127C627.694 51.666 630.333 48.5555 630.216 45.182C630.102 41.9441 630.25 37.7459 631.308 34.3254C632.375 30.8938 634.169 28.7186 637.105 28.4391V25.2898C634.166 25.0103 632.375 22.8351 631.308 19.4035C630.25 15.983 630.102 11.7848 630.216 8.54416C630.333 5.17344 627.694 2.06287 624.127 2.06287H587.586ZM616.977 32.5958C616.977 37.2395 613.502 40.0567 607.733 40.0567H597.911C597.771 40.0571 597.634 40.0301 597.505 39.9773C597.376 39.9244 597.259 39.8468 597.161 39.7489C597.062 39.6509 596.984 39.5346 596.93 39.4065C596.877 39.2784 596.85 39.141 596.85 39.0023V14.7266C596.85 14.5879 596.877 14.4505 596.93 14.3224C596.984 14.1943 597.062 14.078 597.161 13.98C597.259 13.8821 597.376 13.8045 597.505 13.7516C597.634 13.6988 597.771 13.6718 597.911 13.6722H607.675C612.486 13.6722 615.644 16.268 615.644 20.2559C615.644 23.051 613.519 25.5582 610.813 25.9955V26.1422C614.497 26.5434 616.977 29.0867 616.977 32.5958ZM606.661 17.0152H601.061V24.8968H605.777C609.425 24.8968 611.433 23.4356 611.433 20.8204C611.433 18.3713 609.705 17.018 606.661 17.018V17.0152ZM601.061 28.024V36.7109H606.866C610.663 36.7109 612.672 35.1916 612.672 32.3384C612.672 29.488 610.608 28.024 606.622 28.024H601.061Z" fill="white" fill-opacity="0.8"/>
<path d="M700.662 25.9352C700.662 23.1792 699.671 21.2714 698.823 19.7862L698.563 19.3637C697.533 17.7062 696.632 16.2502 696.632 14.5537C696.632 12.5062 698.186 10.5952 700.376 10.5952C700.441 10.5952 700.503 10.6017 700.565 10.6049L700.666 10.6147C696.558 6.8419 691.182 4.75142 685.605 4.7582C681.909 4.7563 678.27 5.67412 675.017 7.42895C671.764 9.18378 668.998 11.7205 666.97 14.8104C667.49 14.8267 667.987 14.8397 668.406 14.8397C670.736 14.8397 674.347 14.5569 674.347 14.5569C675.55 14.4854 675.693 16.2502 674.49 16.3932C674.49 16.3932 673.284 16.5362 671.939 16.6044L680.064 40.7649L684.939 26.1204L681.461 16.6012C680.262 16.5297 679.125 16.3899 679.125 16.3899C677.922 16.3184 678.065 14.4789 679.264 14.5504C679.264 14.5504 682.95 14.8332 685.14 14.8332C687.474 14.8332 691.088 14.5504 691.088 14.5504C692.29 14.4789 692.43 16.2469 691.228 16.3899C691.228 16.3899 690.019 16.5297 688.676 16.6012L696.736 40.5764L698.959 33.1437L699.135 32.5814C700.012 29.7864 700.659 27.7227 700.659 25.9319L700.662 25.9352ZM663.3 27.0629C663.3 31.2514 664.479 35.3552 666.702 38.9049C668.925 42.4547 672.103 45.3068 675.871 47.1349L665.228 17.9824C663.953 20.8398 663.296 23.9342 663.3 27.0629Z" fill="white" fill-opacity="0.8"/>
<path d="M679.303 48.4575L685.998 29.0128L692.853 47.7978C692.898 47.905 692.95 48.0058 693.012 48.1033C688.593 49.6599 683.796 49.7839 679.303 48.4575ZM705.173 16.3605C705.271 17.0723 705.326 17.8328 705.326 18.655C705.326 20.917 704.904 23.4618 703.63 26.6435L696.818 46.3385C701.844 43.4179 705.532 38.6494 707.093 33.0493C708.655 27.4493 707.967 21.4608 705.177 16.3605H705.173Z" fill="white" fill-opacity="0.8"/>
<path fill-rule="evenodd" clip-rule="evenodd" d="M659.605 27.0629C659.605 12.7271 671.269 1.06287 685.605 1.06287C699.938 1.06287 711.605 12.7271 711.605 27.0629C711.605 41.3986 699.938 53.0629 685.605 53.0629C671.269 53.0629 659.605 41.3986 659.605 27.0629ZM660.798 27.0629C660.798 40.7421 671.926 51.8701 685.605 51.8701C699.281 51.8701 710.409 40.7421 710.409 27.0629C710.409 13.3804 699.281 2.25562 685.605 2.25562C671.923 2.25562 660.798 13.3804 660.798 27.0629Z" fill="white" fill-opacity="0.8"/>
<path d="M777.418 2.06287H749.793C743.062 2.06287 737.605 7.5194 737.605 14.2504V41.8754C737.605 48.6063 743.062 54.0629 749.793 54.0629H777.418C784.149 54.0629 789.605 48.6063 789.605 41.8754V14.2504C789.605 7.5194 784.149 2.06287 777.418 2.06287Z" fill="white" fill-opacity="0.8"/>
<mask id="mask0_384_17" style="mask-type:luminance" maskUnits="userSpaceOnUse" x="745" y="9" width="37" height="38">
<path d="M745.324 9.78162H781.886V46.3441H745.324V9.78162Z" fill="white"/>
</mask>
<g mask="url(#mask0_384_17)">
<path fill-rule="evenodd" clip-rule="evenodd" d="M779.002 38.2618C777.014 38.2065 775.471 38.4103 774.178 38.9542C773.806 39.1037 773.208 39.1037 773.159 39.5723C773.358 39.769 773.382 40.0907 773.557 40.3633C773.855 40.8579 774.377 41.5242 774.85 41.8699L776.441 43.007C777.411 43.5995 778.505 43.9458 779.449 44.5389C779.997 44.8851 780.543 45.3299 781.091 45.701C781.369 45.8987 781.538 46.2206 781.886 46.3435V46.2688C781.713 46.0471 781.662 45.726 781.489 45.4778L780.742 44.7616C780.022 43.7979 779.126 42.957 778.156 42.2658C777.36 41.722 775.62 40.9808 775.297 40.0669L775.248 40.0115C775.794 39.9562 776.441 39.7639 776.963 39.6156C777.809 39.394 778.58 39.4427 779.449 39.2205L780.644 38.8744V38.6528C780.196 38.2081 779.873 37.6148 779.401 37.1952C778.133 36.1078 776.739 35.0449 775.297 34.1554C774.526 33.6614 773.531 33.3394 772.711 32.9202C772.412 32.7717 771.915 32.6976 771.741 32.4506C771.293 31.9078 771.045 31.1904 770.721 30.5475L768.683 26.2477C768.235 25.2839 767.961 24.3201 767.415 23.4306C764.853 19.2294 762.068 16.6844 757.791 14.188C756.871 13.669 755.777 13.4458 754.614 13.1744L752.749 13.0749C752.351 12.902 751.953 12.4322 751.605 12.2096C750.188 11.3199 746.532 9.39263 745.487 11.9327C744.815 13.5388 746.482 15.1201 747.048 15.9361C747.471 16.5044 748.017 17.1467 748.317 17.7894C748.484 18.2093 748.54 18.6545 748.714 19.0994C749.111 20.1865 749.485 21.3979 750.007 22.4115C750.286 22.9305 750.578 23.4749 750.926 23.9441C751.126 24.221 751.474 24.3396 751.548 24.7842C751.2 25.2788 751.176 26.0194 750.977 26.6381C750.081 29.4307 750.429 32.8903 751.697 34.9464C752.096 35.5639 753.035 36.9236 754.309 36.4042C755.428 35.9593 755.178 34.5509 755.502 33.3151C755.577 33.0189 755.527 32.8211 755.676 32.6228V32.6783L756.695 34.7292C757.466 35.9401 758.81 37.2006 759.928 38.0414C760.524 38.4862 760.997 39.2528 761.743 39.5242V39.4494H761.694C761.544 39.2278 761.32 39.1281 761.121 38.9552C760.674 38.5106 760.177 37.9666 759.828 37.4726C758.784 36.0889 757.865 34.5564 757.044 32.975C756.645 32.2091 756.297 31.3687 755.975 30.6027C755.824 30.306 755.824 29.8605 755.576 29.7133C755.203 30.256 754.657 30.7268 754.382 31.3937C753.909 32.4561 753.86 33.766 753.687 35.1253C753.586 35.1501 753.631 35.1253 753.586 35.1806C752.791 34.9835 752.517 34.167 752.219 33.4757C751.473 31.7211 751.348 28.904 751.995 26.8774C752.169 26.3584 752.916 24.7273 752.617 24.2331C752.467 23.7635 751.971 23.4921 751.697 23.121C751.374 22.6514 751.026 22.0587 750.802 21.5397C750.206 20.155 749.908 18.6234 749.261 17.2396C748.961 16.5969 748.44 15.9294 748.017 15.3369C747.544 14.6694 747.023 14.1996 746.65 13.4092C746.525 13.1324 746.351 12.6926 746.55 12.3956C746.6 12.198 746.7 12.1188 746.898 12.0745C747.221 11.7974 748.142 12.1486 748.465 12.2959C749.384 12.667 750.155 13.0127 750.926 13.5311C751.274 13.7781 751.648 14.2479 752.095 14.372H752.618C753.414 14.5447 754.309 14.4273 755.054 14.6489C756.372 15.0698 757.565 15.6869 758.635 16.3547C761.892 18.4059 764.579 21.322 766.393 24.807C766.691 25.3753 766.816 25.8943 767.09 26.4874C767.613 27.6989 768.259 28.9341 768.78 30.1209C769.303 31.2824 769.8 32.4695 770.546 33.4331C770.919 33.9521 772.411 34.2234 773.082 34.4954C773.579 34.717 774.35 34.9165 774.798 35.1879C775.643 35.7069 776.489 36.3 777.284 36.8683C777.681 37.1641 778.925 37.7822 778.999 38.2752L779.002 38.2618ZM753.643 16.7868C753.3 16.7838 752.958 16.8253 752.625 16.9103V16.9657H752.674C752.873 17.3612 753.221 17.6332 753.47 17.9793L754.042 19.1656L754.091 19.1103C754.439 18.8633 754.614 18.4678 754.614 17.8753C754.465 17.7025 754.44 17.529 754.316 17.3561C754.166 17.1091 753.843 16.985 753.643 16.788V16.7868Z" fill="#2A2B3A"/>
</g>
<path d="M834.104 3.06287H825.855C823.667 3.06287 821.569 3.93209 820.022 5.47933C818.474 7.02656 817.605 9.12506 817.605 11.3132C817.605 13.5013 818.474 15.5998 820.022 17.147C821.569 18.6943 823.667 19.5635 825.855 19.5635H834.104V3.06287Z" fill="#2A2B3A" stroke="white" stroke-opacity="0.8" stroke-width="1.5"/>
<path d="M834.104 19.561H825.855C823.667 19.561 821.569 20.4303 820.022 21.9775C818.474 23.5247 817.605 25.6232 817.605 27.8113C817.605 29.9995 818.474 32.098 820.022 33.6452C821.569 35.1924 823.667 36.0617 825.855 36.0617H834.104V19.561Z" fill="#2A2B3A" stroke="white" stroke-opacity="0.8" stroke-width="1.5"/>
<path d="M850.605 27.8126C850.605 30.0007 849.736 32.0992 848.189 33.6464C846.641 35.1936 844.543 36.0629 842.355 36.0629C840.167 36.0629 838.068 35.1936 836.521 33.6464C834.974 32.0992 834.104 30.0007 834.104 27.8126C834.104 25.6244 834.974 23.5259 836.521 21.9787C838.068 20.4315 840.167 19.5623 842.355 19.5623C844.543 19.5623 846.641 20.4315 848.189 21.9787C849.736 23.5259 850.605 25.6244 850.605 27.8126ZM825.855 36.0641H834.104V44.3132C834.104 45.9446 833.62 47.5392 832.713 48.8954C831.806 50.2517 830.518 51.3086 829.01 51.9326C827.503 52.5565 825.845 52.7195 824.245 52.401C822.645 52.0824 821.175 51.2966 820.022 50.1428C818.868 48.9891 818.083 47.5192 817.765 45.9191C817.447 44.319 817.61 42.6605 818.234 41.1534C818.859 39.6462 819.916 38.358 821.273 37.4517C822.629 36.5454 824.224 36.0641 825.855 36.0641Z" fill="#2A2B3A" stroke="white" stroke-opacity="0.8" stroke-width="1.5"/>
<path d="M834.104 3.06287H842.354C844.542 3.06287 846.64 3.93209 848.187 5.47933C849.735 7.02656 850.604 9.12506 850.604 11.3132C850.604 13.5013 849.735 15.5998 848.187 17.147C846.64 18.6943 844.542 19.5635 842.354 19.5635H834.104V3.06287Z" fill="#2A2B3A" stroke="white" stroke-opacity="0.8" stroke-width="1.5"/>
<defs>
<clipPath id="clip0_384_17">
<rect width="50.2618" height="50.2618" fill="white" transform="translate(337.605 2.06287)"/>
</clipPath>
</defs>
</svg>
