<svg width="50" height="50" viewBox="0 0 50 50" fill="none" xmlns="http://www.w3.org/2000/svg">
<path d="M47.8641 5.24404L37.7843 0.369323C37.2142 0.0916849 36.5722 -0.000436395 35.9476 0.105773C35.323 0.211983 34.7469 0.511243 34.2993 0.961923L14.9926 18.6707L6.57868 12.2567C6.19975 11.9655 5.73116 11.8173 5.25462 11.8378C4.77807 11.8583 4.32382 12.0464 3.97107 12.3691L1.27618 14.838C1.06554 15.0294 0.897035 15.2629 0.781468 15.5235C0.665902 15.7842 0.60583 16.0663 0.605109 16.3517C0.604388 16.6371 0.663034 16.9195 0.777282 17.1807C0.89153 17.442 1.05886 17.6763 1.26852 17.8687L8.56617 24.5628L1.26852 31.2569C1.05886 31.4493 0.89153 31.6837 0.777282 31.9449C0.663034 32.2062 0.604388 32.4886 0.605109 32.774C0.60583 33.0594 0.665902 33.3414 0.781468 33.6021C0.897035 33.8628 1.06554 34.0963 1.27618 34.2876L3.97107 36.7565C4.32382 37.0793 4.77807 37.2673 5.25462 37.2879C5.73116 37.3084 6.19975 37.1601 6.57868 36.8689L14.9926 30.4473L34.3085 48.1637C34.7545 48.6144 35.3293 48.9137 35.9528 49.0199C36.5762 49.1262 37.2171 49.034 37.7859 48.7563L47.8749 43.8739C48.3944 43.623 48.8326 43.2294 49.1388 42.7385C49.445 42.2476 49.6067 41.6796 49.6051 41.1002V8.01464C49.6051 6.8356 48.9268 5.75352 47.8672 5.24096L47.8641 5.24404ZM37.3602 35.7484L22.7021 24.5644L37.3602 13.3804V35.7484Z" fill="white" fill-opacity="0.8"/>
</svg>
