<svg width="53" height="53" viewBox="0 0 53 53" fill="none" xmlns="http://www.w3.org/2000/svg">
<path d="M41.6624 24.9352C41.6624 22.1792 40.6711 20.2714 39.8229 18.7862L39.5629 18.3637C38.5326 16.7062 37.6324 15.2502 37.6324 13.5537C37.6324 11.5062 39.1859 9.59519 41.3764 9.59519C41.4414 9.59519 41.5031 9.6017 41.5649 9.60495L41.6656 9.61469C37.5582 5.8419 32.1823 3.75142 26.6051 3.7582C22.9088 3.7563 19.2701 4.67412 16.0169 6.42895C12.7636 8.18378 9.99816 10.7205 7.96962 13.8104C8.48962 13.8267 8.98687 13.8397 9.40612 13.8397C11.7364 13.8397 15.3471 13.5569 15.3471 13.5569C16.5496 13.4854 16.6926 15.2502 15.4901 15.3932C15.4901 15.3932 14.2844 15.5362 12.9389 15.6044L21.0639 39.7649L25.9389 25.1204L22.4614 15.6012C21.2621 15.5297 20.1246 15.3899 20.1246 15.3899C18.9221 15.3184 19.0651 13.4789 20.2644 13.5504C20.2644 13.5504 23.9499 13.8332 26.1404 13.8332C28.4739 13.8332 32.0879 13.5504 32.0879 13.5504C33.2904 13.4789 33.4301 15.2469 32.2276 15.3899C32.2276 15.3899 31.0186 15.5297 29.6764 15.6012L37.7364 39.5764L39.9594 32.1437L40.1349 31.5814C41.0124 28.7864 41.6591 26.7227 41.6591 24.9319L41.6624 24.9352ZM4.30037 26.0629C4.30015 30.2514 5.47908 34.3552 7.70224 37.9049C9.92541 41.4547 13.103 44.3068 16.8714 46.1349L6.22762 16.9824C4.95307 19.8398 4.29633 22.9342 4.30037 26.0629Z" fill="white" fill-opacity="0.8"/>
<path d="M20.3033 47.4575L26.9983 28.0128L33.8526 46.7978C33.8981 46.905 33.9501 47.0058 34.0118 47.1033C29.5933 48.6599 24.7964 48.7839 20.3033 47.4575ZM46.1733 15.3605C46.2708 16.0723 46.3261 16.8328 46.3261 17.655C46.3261 19.917 45.9036 22.4618 44.6296 25.6435L37.8176 45.3385C42.8444 42.4179 46.5316 37.6494 48.0931 32.0493C49.6546 26.4493 48.9669 20.4608 46.1766 15.3605H46.1733Z" fill="white" fill-opacity="0.8"/>
<path fill-rule="evenodd" clip-rule="evenodd" d="M0.605103 26.0629C0.605103 11.7271 12.2694 0.0628662 26.6051 0.0628662C40.9376 0.0628662 52.6051 11.7271 52.6051 26.0629C52.6051 40.3986 40.9376 52.0629 26.6051 52.0629C12.2694 52.0629 0.605103 40.3986 0.605103 26.0629ZM1.79785 26.0629C1.79785 39.7421 12.9259 50.8701 26.6051 50.8701C40.2811 50.8701 51.4091 39.7421 51.4091 26.0629C51.4091 12.3804 40.2811 1.25562 26.6051 1.25562C12.9226 1.25562 1.79785 12.3804 1.79785 26.0629Z" fill="white" fill-opacity="0.8"/>
</svg>
