<svg width="52" height="52" viewBox="0 0 52 52" fill="none" xmlns="http://www.w3.org/2000/svg">
<g clip-path="url(#clip0_430_2)">
<path d="M47.788 18.3019C45.853 17.1862 43.5546 16.8834 41.3967 17.4597C39.2388 18.0361 37.3975 19.4445 36.2765 21.3764L27.8503 35.9364C27.2985 36.8907 26.9402 37.9443 26.7956 39.0371C26.6511 40.1299 26.7233 41.2405 27.0079 42.3054C27.2926 43.3704 27.7843 44.3688 28.4549 45.2437C29.1254 46.1186 29.9618 46.8529 30.9161 47.4045L30.9378 47.4154C32.8728 48.5301 35.1709 48.8323 37.3283 48.2555C39.4857 47.6788 41.3265 46.2703 42.4471 44.3387L50.8733 29.783C51.425 28.8284 51.7833 27.7745 51.9277 26.6814C52.0721 25.5884 51.9998 24.4776 51.7149 23.4125C51.43 22.3473 50.9381 21.3488 50.2673 20.4737C49.5965 19.5987 48.7599 18.8644 47.8053 18.3127L47.788 18.3019ZM15.938 44.6659C13.598 48.7565 8.32429 50.2624 4.27262 47.9007C0.220958 45.539 -1.21554 40.4149 1.12446 36.3242C3.46446 32.2335 8.69479 30.7212 12.7486 33.0829C16.8003 35.4445 18.2823 40.573 15.9423 44.6615M24.8928 3.00086C23.4006 3.10112 21.961 3.59213 20.7186 4.42461C19.4761 5.2571 18.4745 6.40175 17.8143 7.74369L9.86262 21.3482C9.68525 21.6196 9.52111 21.8994 9.37079 22.1867L3.42112 32.4502C6.33529 30.5869 10.1161 30.2987 13.2795 32.1404C14.8034 33.0224 16.0571 34.3044 16.9049 35.8476C17.7527 37.3909 18.1623 39.1366 18.0895 40.8959L24.0911 30.576C24.2688 30.3074 24.4313 30.03 24.5765 29.7419L32.5281 16.133C33.1863 15.1766 33.6381 14.0937 33.8548 12.9531C34.0715 11.8126 34.0484 10.6394 33.7869 9.50822C33.5254 8.37708 33.0313 7.31277 32.336 6.38304C31.6407 5.45331 30.7594 4.67853 29.7483 4.10802C28.2756 3.26721 26.5845 2.88192 24.8928 3.00086Z" fill="#2A2B3A"/>
</g>
<defs>
<clipPath id="clip0_430_2">
<rect width="52" height="52" fill="white"/>
</clipPath>
</defs>
</svg>
