<svg width="57" height="57" viewBox="0 0 57 57" fill="none" xmlns="http://www.w3.org/2000/svg">
<path d="M45.7661 24.5504C45.3865 24.551 45.0226 24.7021 44.7542 24.9705C44.4857 25.239 44.3346 25.6029 44.334 25.9825V49.3335H40.2063L32.2833 32.851C33.4138 31.5732 33.8983 29.7991 33.5301 28.101C33.36 27.2617 32.9938 26.4745 32.4613 25.8037C31.9289 25.133 31.2453 24.5977 30.4664 24.2416V22.3131C30.4718 22.0462 30.4239 21.7808 30.3257 21.5326C30.2274 21.2843 30.0807 21.0581 29.8942 20.8671C29.7076 20.6761 29.4849 20.5241 29.239 20.4201C28.9931 20.3161 28.7289 20.262 28.4619 20.2611C28.101 20.2609 27.7466 20.3577 27.4359 20.5414C27.1258 20.7303 26.8717 20.9984 26.6997 21.3182C26.5277 21.6379 26.4441 21.9978 26.4574 22.3606V24.0706C25.2656 24.5033 24.2615 25.3372 23.6171 26.4291C22.9728 27.5211 22.7284 28.8032 22.9258 30.0556C23.0939 31.1329 23.5831 32.1345 24.3294 32.9294L16.7056 49.3335H9.72313C8.47369 49.3254 7.27799 48.8243 6.39604 47.9392C5.51409 47.0542 5.01723 45.8567 5.0135 44.6072V11.9154C4.99925 14.5326 7.11063 16.6654 9.73025 16.6796C9.83483 16.6799 9.93938 16.6767 10.0438 16.6701H45.0631C45.0631 16.6701 51.0838 16.1524 51.8604 20.3276C51.5721 20.3569 51.3047 20.4916 51.1096 20.706C50.9146 20.9203 50.8056 21.1992 50.8035 21.489C50.8035 23.1776 49.4284 24.5528 47.7113 24.5528H45.7661V24.5504ZM40.9021 53.5254C41.1697 54.0766 41.2074 54.7114 41.007 55.2904C40.8066 55.8694 40.3844 56.3451 39.8334 56.6129C39.5348 56.7545 39.2091 56.8298 38.8786 56.8338C38.6211 56.8407 38.3643 56.8046 38.1186 56.7269C38.0616 56.7079 38.0094 56.677 37.9524 56.6533C37.7593 56.5737 37.5779 56.4682 37.4133 56.3398C37.3539 56.2923 37.2945 56.2495 37.2423 56.1973C37.0376 56.0108 36.8686 55.7887 36.7435 55.5417L33.7605 49.3335L30.0603 41.6266C29.9121 41.311 29.677 41.0441 29.3826 40.8573C29.0881 40.6705 28.7465 40.5716 28.3978 40.5721H28.393C28.0419 40.5732 27.6981 40.6726 27.4005 40.8589C27.1029 41.0453 26.8634 41.3112 26.7091 41.6266L23.1229 49.3335L20.1945 55.6177C20.0303 55.9956 19.7679 56.3226 19.4346 56.5648C19.1014 56.807 18.7094 56.9557 18.2993 56.9952C18.1496 57.0071 18.0048 56.9905 17.8599 56.9739C17.7791 56.9668 17.696 56.962 17.6153 56.9454C17.5013 56.9216 17.3896 56.8789 17.278 56.8385C17.2068 56.81 17.1355 56.791 17.0643 56.7578C16.9476 56.696 16.8364 56.6245 16.7318 56.544C16.6819 56.5084 16.6249 56.4799 16.575 56.4395C16.4231 56.3107 16.2882 56.1631 16.1736 56.0001C15.9411 55.6599 15.8032 55.264 15.774 54.8529C15.7447 54.4419 15.8253 54.0304 16.0074 53.6607L18.0166 49.3335L25.7781 32.6349C24.8763 31.97 24.2723 30.977 24.0966 29.8704C23.7285 27.5429 25.315 25.3579 27.6425 24.9874V22.3131C27.6364 22.1639 27.6701 22.0156 27.7402 21.8837C27.8103 21.7518 27.9143 21.641 28.0415 21.5626C28.1688 21.4872 28.314 21.4473 28.4619 21.4473C28.6098 21.4473 28.755 21.4872 28.8823 21.5626C29.009 21.6413 29.1126 21.7523 29.1823 21.8841C29.252 22.016 29.2853 22.1641 29.2789 22.3131V25.0657L29.3098 25.08C30.0721 25.2899 30.7614 25.7068 31.3014 26.2844C31.8413 26.8621 32.2108 27.578 32.3688 28.3527C32.538 29.1314 32.4843 29.9419 32.2137 30.6913C31.9432 31.4408 31.4668 32.0988 30.8393 32.5898L38.8881 49.3335L40.9021 53.5254ZM30.8369 29.2267C30.8397 28.8833 30.7748 28.5426 30.6458 28.2243C30.5168 27.9059 30.3263 27.6161 30.0852 27.3715C29.8441 27.1268 29.5571 26.9321 29.2406 26.7985C28.9242 26.6649 28.5845 26.595 28.241 26.5929C27.5425 26.5928 26.872 26.8675 26.3743 27.3576C25.8872 27.844 25.6116 28.5028 25.6071 29.1911C25.6046 29.5344 25.6698 29.8748 25.799 30.1929C25.9281 30.511 26.1186 30.8005 26.3597 31.0449C26.6008 31.2893 26.8877 31.4837 27.204 31.6172C27.5203 31.7506 27.8597 31.8204 28.203 31.8226H28.222C28.9124 31.8233 29.575 31.5506 30.065 31.0642C30.555 30.5777 30.8325 29.9172 30.8369 29.2267ZM28.3978 41.7596C28.272 41.7587 28.1484 41.7926 28.0406 41.8575C27.9329 41.9225 27.8453 42.016 27.7874 42.1278L24.4315 49.3335H32.4448L28.9844 42.1301C28.9315 42.0193 28.8484 41.9257 28.7446 41.8602C28.6408 41.7946 28.5205 41.7598 28.3978 41.7596ZM47.7374 25.7379H45.7661C45.7013 25.7379 45.639 25.7636 45.5932 25.8095C45.5473 25.8554 45.5215 25.9176 45.5215 25.9825V56.6438C45.5214 56.7058 45.5449 56.7657 45.5872 56.8111C45.6295 56.8565 45.6876 56.8842 45.7495 56.8884H47.754C48.8786 56.884 49.9557 56.4341 50.7494 55.6373C51.543 54.8406 51.9887 53.7618 51.9886 52.6371V21.4866C51.9886 22.6141 51.5407 23.6954 50.7435 24.4927C49.9462 25.29 48.8649 25.7379 47.7374 25.7379ZM6.19863 11.9154V11.9581C6.20669 12.8923 6.58136 13.7859 7.24193 14.4465C7.90249 15.107 8.7961 15.4817 9.73025 15.4897C9.83395 15.4868 9.93766 15.4844 10.0414 15.4826H12.7228C13.1672 12.3974 14.5217 9.51478 16.613 7.20337H9.735C8.68918 7.2089 7.67467 7.56081 6.85007 8.20407C6.02546 8.84734 5.43725 9.74572 5.17738 10.7588C5.75213 10.8443 6.19863 11.3169 6.19863 11.913V11.9154ZM21.2514 5.03025L18.7861 0.779C18.7409 0.700214 18.7171 0.610961 18.7171 0.520125C18.7171 0.429289 18.7409 0.340036 18.7861 0.26125C18.8342 0.185625 18.8995 0.122498 18.9767 0.0770758C19.0539 0.0316531 19.1408 0.00523515 19.2303 0C19.3206 0.0012207 19.4091 0.0259541 19.487 0.071764C19.5648 0.117574 19.6294 0.18288 19.6744 0.26125L22.1681 4.57187C24.154 3.67995 26.3063 3.21881 28.4833 3.21881C30.6602 3.21881 32.8125 3.67995 34.7984 4.57187L37.2779 0.26125C37.3565 0.164767 37.467 0.099649 37.5895 0.0777116C37.712 0.0557742 37.8383 0.0784714 37.9454 0.141685C38.0526 0.204898 38.1336 0.304438 38.1736 0.422242C38.2137 0.540046 38.2102 0.668307 38.1638 0.78375L35.7175 5.035C37.6592 6.10159 39.3314 7.59776 40.6066 9.40928C41.8818 11.2208 42.7262 13.2997 43.0753 15.4874L13.8936 15.485C14.2428 13.298 15.087 11.2197 16.3617 9.40861C17.6365 7.59755 19.3081 6.10163 21.249 5.035L21.2514 5.03025ZM34.0218 11.2527C34.0255 11.4134 34.0608 11.5717 34.1257 11.7187C34.1906 11.8657 34.2838 11.9984 34.4001 12.1094C34.5163 12.2203 34.6533 12.3073 34.8031 12.3653C34.953 12.4233 35.1128 12.4512 35.2734 12.4474C35.4342 12.4477 35.5935 12.4163 35.7422 12.355C35.8909 12.2936 36.026 12.2036 36.1398 12.09C36.2536 11.9764 36.344 11.8414 36.4056 11.6929C36.4672 11.5443 36.4989 11.3851 36.4989 11.2242C36.4981 10.98 36.4249 10.7415 36.2888 10.5387C36.1526 10.3359 35.9595 10.178 35.7337 10.0848C35.5079 9.99158 35.2596 9.96728 35.0201 10.0149C34.7805 10.0626 34.5604 10.1801 34.3875 10.3526C34.268 10.47 34.1739 10.6107 34.111 10.7659C34.048 10.9212 34.0177 11.0853 34.0218 11.2527ZM20.4439 11.2385C20.4454 11.3991 20.4786 11.5579 20.5415 11.7057C20.6044 11.8535 20.6958 11.9874 20.8105 12.0999C20.9252 12.2124 21.0609 12.3012 21.2099 12.3612C21.3589 12.4212 21.5183 12.4513 21.6789 12.4498C21.8405 12.452 22.0008 12.4219 22.1505 12.3611C22.3003 12.3003 22.4363 12.2101 22.5505 12.0959C22.682 11.9856 22.789 11.8492 22.8649 11.6953C22.9408 11.5414 22.9839 11.3734 22.9914 11.202C22.9989 11.0305 22.9706 10.8594 22.9084 10.6995C22.8462 10.5396 22.7515 10.3943 22.6301 10.273C22.5088 10.1517 22.3636 10.0569 22.2036 9.99473C22.0437 9.93254 21.8726 9.90429 21.7012 9.91177C21.5298 9.91926 21.3618 9.96232 21.2079 10.0382C21.054 10.1141 20.9176 10.2212 20.8073 10.3526C20.6902 10.4683 20.5977 10.6063 20.5353 10.7585C20.4729 10.9107 20.4418 11.074 20.4439 11.2385Z" fill="#2A2B3A"/>
</svg>
