<svg width="64" height="50" viewBox="0 0 64 50" fill="none" xmlns="http://www.w3.org/2000/svg">
<g clip-path="url(#clip0_428_11)">
<path d="M13.5858 0.0628662C10.0191 0.0628662 7.383 3.17344 7.50244 6.54416C7.61356 9.7848 7.46633 13.9802 6.40522 17.4035C5.34133 20.8351 3.54411 23.0103 0.605225 23.2898V26.4391C3.54411 26.7186 5.34133 28.8938 6.40522 32.3254C7.46633 35.7459 7.61356 39.9441 7.49967 43.182C7.383 46.5555 10.0191 49.666 13.5885 49.666H50.1274C53.6941 49.666 56.333 46.5555 56.2163 43.182C56.1024 39.9441 56.2496 35.7459 57.308 32.3254C58.3746 28.8938 60.1691 26.7186 63.1052 26.4391V23.2898C60.1663 23.0103 58.3746 20.8351 57.308 17.4035C56.2496 13.983 56.1024 9.7848 56.2163 6.54416C56.333 3.17344 53.6941 0.0628662 50.1274 0.0628662H13.5858ZM42.9774 30.5958C42.9774 35.2395 39.5024 38.0567 33.733 38.0567H23.9108C23.7715 38.0571 23.6336 38.0301 23.5049 37.9773C23.3762 37.9244 23.2592 37.8468 23.1606 37.7489C23.062 37.6509 22.9838 37.5346 22.9305 37.4065C22.8771 37.2784 22.8496 37.141 22.8496 37.0023V12.7266C22.8496 12.5879 22.8771 12.4505 22.9305 12.3224C22.9838 12.1943 23.062 12.078 23.1606 11.98C23.2592 11.8821 23.3762 11.8045 23.5049 11.7516C23.6336 11.6988 23.7715 11.6718 23.9108 11.6722H33.6746C38.4858 11.6722 41.6441 14.268 41.6441 18.2559C41.6441 21.051 39.5191 23.5582 36.8135 23.9955V24.1422C40.4969 24.5434 42.9774 27.0867 42.9774 30.5958ZM32.6608 15.0152H27.0608V22.8968H31.7774C35.4246 22.8968 37.433 21.4356 37.433 18.8204C37.433 16.3713 35.7052 15.018 32.6608 15.018V15.0152ZM27.0608 26.024V34.7109H32.8663C36.6635 34.7109 38.6719 33.1916 38.6719 30.3384C38.6719 27.488 36.608 26.024 32.6219 26.024H27.0608Z" fill="#2A2B3A"/>
</g>
<defs>
<clipPath id="clip0_428_11">
<rect width="64" height="50" fill="white"/>
</clipPath>
</defs>
</svg>
