<svg width="36" height="52" viewBox="0 0 36 52" fill="none" xmlns="http://www.w3.org/2000/svg">
<g clip-path="url(#clip0_428_3)">
<path d="M18.1044 1.06287H9.85529C7.66717 1.06287 5.56868 1.93209 4.02144 3.47933C2.47421 5.02656 1.60498 7.12506 1.60498 9.31318C1.60498 11.5013 2.47421 13.5998 4.02144 15.147C5.56868 16.6943 7.66717 17.5635 9.85529 17.5635H18.1044V1.06287Z" stroke="#2A2B3A" stroke-width="1.5"/>
<path d="M18.1044 17.561H9.85529C7.66717 17.561 5.56868 18.4303 4.02144 19.9775C2.47421 21.5247 1.60498 23.6232 1.60498 25.8113C1.60498 27.9995 2.47421 30.098 4.02144 31.6452C5.56868 33.1924 7.66717 34.0617 9.85529 34.0617H18.1044V17.561Z" stroke="#2A2B3A" stroke-width="1.5"/>
<path d="M34.6052 25.8126C34.6052 28.0007 33.736 30.0992 32.1887 31.6464C30.6415 33.1936 28.543 34.0629 26.3549 34.0629C24.1668 34.0629 22.0683 33.1936 20.521 31.6464C18.9738 30.0992 18.1046 28.0007 18.1046 25.8126C18.1046 23.6244 18.9738 21.5259 20.521 19.9787C22.0683 18.4315 24.1668 17.5623 26.3549 17.5623C28.543 17.5623 30.6415 18.4315 32.1887 19.9787C33.736 21.5259 34.6052 23.6244 34.6052 25.8126ZM9.85552 34.0641H18.1046V42.3132C18.1041 43.9446 17.6199 45.5392 16.7131 46.8954C15.8064 48.2517 14.5179 49.3086 13.0106 49.9326C11.5032 50.5565 9.84469 50.7195 8.24469 50.401C6.64469 50.0824 5.17507 49.2966 4.02167 48.1428C2.86826 46.9891 2.08286 45.5192 1.76477 43.9191C1.44668 42.319 1.61018 40.6605 2.23461 39.1534C2.85903 37.6462 3.91634 36.358 5.27284 35.4517C6.62934 34.5454 8.22411 34.0641 9.85552 34.0641Z" stroke="#2A2B3A" stroke-width="1.5"/>
<path d="M18.1045 1.06287H26.3536C28.5417 1.06287 30.6402 1.93209 32.1874 3.47933C33.7346 5.02656 34.6039 7.12506 34.6039 9.31318C34.6039 11.5013 33.7346 13.5998 32.1874 15.147C30.6402 16.6943 28.5417 17.5635 26.3536 17.5635H18.1045V1.06287Z" stroke="#2A2B3A" stroke-width="1.5"/>
</g>
<defs>
<clipPath id="clip0_428_3">
<rect width="36" height="52" fill="white"/>
</clipPath>
</defs>
</svg>
