<svg width="54" height="53" viewBox="0 0 54 53" fill="none" xmlns="http://www.w3.org/2000/svg">
<g clip-path="url(#clip0_428_17)">
<path d="M27.1052 0.0628662C23.6252 0.0628662 20.1792 0.751553 16.9641 2.0896C13.749 3.42766 10.8276 5.38887 8.36689 7.86127C3.39718 12.8545 0.605225 19.6268 0.605225 26.6883C0.605225 38.4567 8.21072 48.4412 18.7312 51.9824C20.0562 52.1954 20.4802 51.37 20.4802 50.6511V46.1514C13.1397 47.749 11.5762 42.5836 11.5762 42.5836C10.3572 39.4951 8.63472 38.6697 8.63472 38.6697C6.22322 37.0189 8.82022 37.0722 8.82022 37.0722C11.4702 37.2586 12.8747 39.8146 12.8747 39.8146C15.1802 43.8617 19.0757 42.6635 20.5862 42.0245C20.8247 40.2939 21.5137 39.1223 22.2557 38.4567C16.3727 37.7911 10.1982 35.5013 10.1982 25.357C10.1982 22.4016 11.2052 20.0319 12.9277 18.1415C12.6627 17.4759 11.7352 14.7068 13.1927 11.1124C13.1927 11.1124 15.4187 10.3935 20.4802 13.8282C22.5737 13.2424 24.8527 12.9496 27.1052 12.9496C29.3577 12.9496 31.6367 13.2424 33.7302 13.8282C38.7917 10.3935 41.0177 11.1124 41.0177 11.1124C42.4752 14.7068 41.5477 17.4759 41.2827 18.1415C43.0052 20.0319 44.0122 22.4016 44.0122 25.357C44.0122 35.5279 37.8112 37.7644 31.9017 38.4301C32.8557 39.2555 33.7302 40.8796 33.7302 43.3558V50.6511C33.7302 51.37 34.1542 52.222 35.5057 51.9824C46.0262 48.4146 53.6052 38.4567 53.6052 26.6883C53.6052 23.1918 52.9198 19.7295 51.588 16.4992C50.2563 13.2688 48.3043 10.3337 45.8435 7.86127C43.3828 5.38887 40.4614 3.42766 37.2463 2.0896C34.0312 0.751553 30.5852 0.0628662 27.1052 0.0628662Z" fill="#2A2B3A"/>
</g>
<defs>
<clipPath id="clip0_428_17">
<rect width="54" height="53" fill="white"/>
</clipPath>
</defs>
</svg>
