<svg width="42" height="47" viewBox="0 0 42 47" fill="none" xmlns="http://www.w3.org/2000/svg">
<g clip-path="url(#clip0_430_4)">
<path d="M42.0005 41.0312C42.0047 41.8572 41.8349 42.6748 41.5022 43.4296C41.1695 44.1844 40.6815 44.8593 40.0707 45.4095C39.4599 45.9597 38.7401 46.3727 37.959 46.621C37.178 46.8694 36.3536 46.9474 35.5403 46.8501C32.58 46.4082 30.4108 43.8098 30.483 40.792V6.09759C30.4114 3.07668 32.5861 0.47679 35.5502 0.0397227C36.3626 -0.0562227 37.186 0.022925 37.9659 0.271931C38.7458 0.520937 39.4643 0.934126 40.0741 1.48417C40.6838 2.03421 41.1708 2.70857 41.5029 3.46265C41.835 4.21673 42.0046 5.03333 42.0005 5.85846V41.0312Z" fill="#2A2B3A"/>
<path d="M5.75876 35.2819C8.93927 35.2819 11.5175 37.8828 11.5175 41.0909C11.5175 44.2992 8.93927 46.8999 5.75876 46.8999C2.57824 46.8999 0 44.2992 0 41.0911C0 37.8828 2.57824 35.2819 5.75876 35.2819ZM20.9112 17.6756C17.7158 17.8524 15.2363 20.5562 15.3106 23.7837V39.3872C15.3106 43.6218 17.1578 46.1926 19.8642 46.7405C20.7033 46.9121 21.5696 46.8931 22.4005 46.6849C23.2314 46.4768 24.006 46.0847 24.668 45.5371C25.33 44.9896 25.8629 44.3002 26.228 43.5191C26.593 42.738 26.7812 41.8846 26.7788 41.0211V23.5147C26.7802 22.7408 26.6288 21.9744 26.3334 21.2601C26.038 20.5458 25.6046 19.898 25.0585 19.3545C24.5123 18.811 23.8643 18.3826 23.1522 18.0944C22.4402 17.8062 21.6784 17.6637 20.9112 17.6756Z" fill="#2A2B3A"/>
</g>
<defs>
<clipPath id="clip0_430_4">
<rect width="42" height="47" fill="white"/>
</clipPath>
</defs>
</svg>
