<svg width="52" height="52" viewBox="0 0 52 52" fill="none" xmlns="http://www.w3.org/2000/svg">
<g clip-path="url(#clip0_428_21)">
<path fill-rule="evenodd" clip-rule="evenodd" d="M0.605225 0.0628662H51.6052V51.0629H0.605225V0.0628662ZM39.5926 42.8179C37.2275 42.8179 35.8908 41.5854 34.8645 39.9066L30.9693 42.1697C32.3761 44.9492 35.2512 47.07 39.7031 47.07C44.2548 47.07 47.6442 44.707 47.6442 40.3911C47.6442 36.3897 45.345 34.6111 41.2735 32.8622L40.075 32.3501C38.018 31.4576 37.1276 30.8775 37.1276 29.4389C37.1276 28.2765 38.0201 27.3861 39.4226 27.3861C40.7975 27.3861 41.6836 27.9662 42.506 29.4389L46.2375 27.044C44.6586 24.2666 42.4698 23.2062 39.4226 23.2062C35.1428 23.2062 32.4037 25.9432 32.4037 29.5387C32.4037 33.4381 34.6987 35.2847 38.1582 36.7574L39.3567 37.2716C41.5433 38.2279 42.846 38.8101 42.846 40.4527C42.846 41.8255 41.5773 42.8179 39.5926 42.8179ZM21.0201 42.786C19.3732 42.786 18.6868 41.6597 17.9346 40.321L14.0331 42.684C15.1636 45.0767 17.3863 47.0615 21.222 47.0615C25.4698 47.0615 28.379 44.8026 28.379 39.8407V23.4782H23.5871V39.777C23.5871 42.1719 22.5926 42.786 21.018 42.786H21.0201Z" fill="#2A2B3A"/>
</g>
<defs>
<clipPath id="clip0_428_21">
<rect width="52" height="52" fill="white"/>
</clipPath>
</defs>
</svg>
