<svg width="51" height="51" viewBox="0 0 51 51" fill="none" xmlns="http://www.w3.org/2000/svg">
<g clip-path="url(#clip0_428_23)">
<mask id="mask0_428_23" style="mask-type:luminance" maskUnits="userSpaceOnUse" x="0" y="0" width="51" height="51">
<path d="M50.867 0.0628662H0.605225V50.3247H50.867V0.0628662Z" fill="white"/>
</mask>
<g mask="url(#mask0_428_23)">
<path d="M50.867 8.27648C50.534 7.87229 50.1026 7.32779 49.6775 6.777L49.5476 6.59899V6.57805C49.0241 5.86601 48.6471 5.97072 48.2282 6.07543C47.8094 6.18014 38.2387 7.89742 37.6523 7.96025C37.0659 8.06496 37.2544 8.3791 37.5057 8.71418L45.8827 20.2367L50.867 19.0451V8.27648ZM0.647109 31.1121L9.71517 28.9341C10.4481 28.7665 10.2597 28.6828 9.90365 28.0335L0.647109 12.0461V31.1121ZM7.30679 50.3246H22.3644C20.3958 47.1184 15.0345 37.4388 12.2492 32.3896H12.2282V32.3686L0.605225 35.4074V43.6419C0.61779 47.3341 3.61255 50.3246 7.30679 50.3246Z" fill="#2A2B3A"/>
<path d="M50.867 26.8168V22.2283L48.0398 23.0053L48.2492 23.2985L50.867 26.8168Z" fill="#2A2B3A"/>
<path d="M42.825 20.9718L33.3381 7.52046C32.5423 6.41051 33.3381 5.90789 34.6365 5.69847C35.8931 5.4681 46.8669 3.62517 47.8302 3.49952C48.6051 3.37386 49.2543 3.12255 50.3433 4.12779C49.3381 1.73826 46.9716 0.0628662 44.2072 0.0628662H7.30668C7.30668 0.0628662 7.3004 0.0628662 7.29621 0.0628662C4.05433 0.0628662 1.35485 2.3791 0.751709 5.48904L14.1339 27.843L42.825 20.9718ZM50.8669 31.7404L45.5056 24.4084C45.1706 23.8849 44.9821 23.7801 44.1653 24.0524L16.1863 31.3424C16.1863 31.3424 24.7727 46.2178 25.4219 47.1602C26.092 48.1236 26.4899 48.0398 27.0135 47.8304C27.3905 47.6629 43.3486 42.2576 50.8669 39.7215V31.7404ZM50.846 44.1655L33.6941 50.3037H44.2072C47.7255 50.3037 50.5946 47.5791 50.846 44.1655Z" fill="#2A2B3A"/>
</g>
</g>
<defs>
<clipPath id="clip0_428_23">
<rect width="51" height="51" fill="white"/>
</clipPath>
</defs>
</svg>
