<svg width="53" height="53" viewBox="0 0 53 53" fill="none" xmlns="http://www.w3.org/2000/svg">
<g clip-path="url(#clip0_428_31)">
<path d="M40.4177 0.0628662H12.7927C6.06175 0.0628662 0.605225 5.5194 0.605225 12.2504V39.8754C0.605225 46.6063 6.06175 52.0629 12.7927 52.0629H40.4177C47.1487 52.0629 52.6052 46.6063 52.6052 39.8754V12.2504C52.6052 5.5194 47.1487 0.0628662 40.4177 0.0628662Z" fill="#2A2B3A"/>
<mask id="mask0_428_31" style="mask-type:luminance" maskUnits="userSpaceOnUse" x="8" y="7" width="37" height="38">
<path d="M8.32373 7.78162H44.8863V44.3441H8.32373V7.78162Z" fill="white"/>
</mask>
<g mask="url(#mask0_428_31)">
<path fill-rule="evenodd" clip-rule="evenodd" d="M42.0021 36.2618C40.0135 36.2065 38.4708 36.4103 37.1779 36.9542C36.8056 37.1037 36.2082 37.1037 36.159 37.5723C36.3581 37.769 36.3821 38.0907 36.5565 38.3633C36.8545 38.8579 37.3774 39.5242 37.8494 39.8699L39.4407 41.007C40.4104 41.5995 41.5045 41.9458 42.4492 42.5389C42.9964 42.8851 43.5432 43.3299 44.0904 43.701C44.3691 43.8987 44.5379 44.2206 44.8863 44.3435V44.2688C44.7124 44.0471 44.6622 43.726 44.489 43.4778L43.7421 42.7616C43.0216 41.7979 42.1258 40.957 41.1561 40.2658C40.3603 39.722 38.6203 38.9808 38.2969 38.0669L38.248 38.0115C38.7942 37.9562 39.4407 37.7639 39.9633 37.6156C40.8094 37.394 41.5796 37.4427 42.4492 37.2205L43.6436 36.8744V36.6528C43.1959 36.2081 42.8727 35.6148 42.4006 35.1952C41.1327 34.1078 39.7393 33.0449 38.2969 32.1554C37.5263 31.6614 36.5313 31.3394 35.7109 30.9202C35.4117 30.7717 34.9151 30.6976 34.7412 30.4506C34.2925 29.9078 34.0445 29.1904 33.7213 28.5475L31.6825 24.2477C31.2351 23.2839 30.9608 22.3201 30.4146 21.4306C27.853 17.2294 25.0676 14.6844 20.7906 12.188C19.871 11.669 18.777 11.4458 17.6137 11.1744L15.749 11.0749C15.3505 10.902 14.953 10.4322 14.6048 10.2096C13.1874 9.31988 9.53195 7.39263 8.48667 9.93271C7.81534 11.5388 9.48178 13.1201 10.0475 13.9361C10.471 14.5044 11.0172 15.1467 11.3164 15.7894C11.4836 16.2093 11.5395 16.6545 11.7139 17.0994C12.1113 18.1865 12.4846 19.3979 13.0068 20.4115C13.2855 20.9305 13.5782 21.4749 13.9264 21.9441C14.1254 22.221 14.4738 22.3396 14.5479 22.7842C14.1996 23.2788 14.1756 24.0194 13.9766 24.6381C13.081 27.4307 13.4293 30.8903 14.6972 32.9464C15.0958 33.5639 16.0348 34.9236 17.309 34.4042C18.428 33.9593 18.1784 32.5509 18.5016 31.3151C18.5767 31.0189 18.5268 30.8211 18.6754 30.6228V30.6783L19.6953 32.7292C20.4662 33.9401 21.8095 35.2006 22.9279 36.0414C23.5242 36.4862 23.9969 37.2528 24.7426 37.5242V37.4494H24.6936C24.5441 37.2278 24.3201 37.1281 24.1212 36.9552C23.6737 36.5106 23.1765 35.9666 22.8281 35.4726C21.7843 34.0889 20.8647 32.5564 20.0437 30.975C19.6454 30.2091 19.297 29.3687 18.9748 28.6027C18.8243 28.306 18.8243 27.8605 18.5763 27.7133C18.2028 28.256 17.6568 28.7268 17.3819 29.3937C16.9093 30.4561 16.8603 31.766 16.6864 33.1253C16.5861 33.1501 16.6306 33.1253 16.5861 33.1806C15.7913 32.9835 15.5171 32.167 15.2191 31.4757C14.4732 29.7211 14.3483 26.904 14.9948 24.8774C15.1687 24.3584 15.9156 22.7273 15.6174 22.2331C15.4671 21.7635 14.9708 21.4921 14.6966 21.121C14.3735 20.6514 14.0263 20.0587 13.8023 19.5397C13.2059 18.155 12.9077 16.6234 12.2606 15.2396C11.9613 14.5969 11.4397 13.9294 11.0166 13.3369C10.5439 12.6694 10.0229 12.1996 9.64956 11.4092C9.52525 11.1324 9.35137 10.6926 9.55023 10.3956C9.59939 10.198 9.69953 10.1188 9.89758 10.0745C10.2206 9.79743 11.1415 10.1486 11.4647 10.2959C12.3843 10.667 13.1551 11.0127 13.926 11.5311C14.2743 11.7781 14.6477 12.2479 15.0952 12.372H15.618C16.4138 12.5447 17.3084 12.4273 18.0535 12.6489C19.3718 13.0698 20.5649 13.6869 21.635 14.3547C24.8921 16.4059 27.5784 19.322 29.3929 22.807C29.6911 23.3753 29.8154 23.8943 30.0896 24.4874C30.6125 25.6989 31.259 26.9341 31.7801 28.1209C32.3029 29.2824 32.7999 30.4695 33.5458 31.4331C33.9192 31.9521 35.4105 32.2234 36.0816 32.4954C36.5793 32.717 37.3495 32.9165 37.7982 33.1879C38.643 33.7069 39.4886 34.3 40.2839 34.8683C40.6812 35.1641 41.9253 35.7822 41.9993 36.2752L42.0021 36.2618ZM16.6434 14.7868C16.2999 14.7838 15.9575 14.8253 15.6247 14.9103V14.9657H15.6737C15.8727 15.3612 16.2211 15.6332 16.4695 15.9793L17.0419 17.1656L17.0911 17.1103C17.4392 16.8633 17.6137 16.4678 17.6137 15.8753C17.4644 15.7025 17.4398 15.529 17.3155 15.3561C17.1662 15.1091 16.8431 14.985 16.6434 14.788V14.7868Z" fill="white"/>
</g>
</g>
<defs>
<clipPath id="clip0_428_31">
<rect width="53" height="53" fill="white"/>
</clipPath>
</defs>
</svg>
