<svg width="52" height="52" viewBox="0 0 52 52" fill="none" xmlns="http://www.w3.org/2000/svg">
<path d="M18.5207 2.50464L14.8027 6.22264V9.86697H18.5207V2.50464ZM18.5207 9.86697V9.94281H14.8027V9.86697H7.33633L0 16.9953V24.7455H6.123V19.37C6.123 18.2325 7.0525 17.303 8.19 17.303H43.888C45.0255 17.303 45.955 18.2346 45.955 19.37V24.7433H51.922V16.9953L44.5857 9.86697H37.4833V9.94281H33.7632V9.86697H18.5207ZM33.7632 9.86697H37.4833V6.22264L33.7632 2.50464V9.86697ZM18.8045 2.57397V6.15331H33.4793V2.57397H18.8045ZM43.6583 17.8923C43.5626 17.8919 43.4669 17.8992 43.3723 17.914L42.1958 17.9183C30.8945 17.9486 19.5932 17.901 8.29183 17.94C7.34933 17.8035 6.5715 18.8846 6.7405 19.8531V24.7585H45.3332C45.2985 22.8345 45.4307 20.8975 45.2595 18.9821C45.0342 18.2411 44.3343 17.8923 43.6583 17.8923ZM10.244 19.266C10.6399 19.266 11.0196 19.4253 11.2996 19.7089C11.5796 19.9925 11.7368 20.3772 11.7368 20.7783C11.7363 21.179 11.5787 21.5631 11.2988 21.8463C11.0189 22.1294 10.6396 22.2885 10.244 22.2885C9.84882 22.2879 9.46999 22.1286 9.19056 21.8455C8.91113 21.5624 8.7539 21.1786 8.75333 20.7783C8.75333 20.3776 8.91032 19.9933 9.18981 19.7097C9.4693 19.4261 9.84845 19.2666 10.244 19.266ZM14.8677 19.266C15.2636 19.266 15.6433 19.4253 15.9233 19.7089C16.2032 19.9925 16.3605 20.3772 16.3605 20.7783C16.3599 21.179 16.2024 21.5631 15.9225 21.8463C15.6426 22.1294 15.2632 22.2885 14.8677 22.2885C14.4725 22.2879 14.0937 22.1286 13.8142 21.8455C13.5348 21.5624 13.3776 21.1786 13.377 20.7783C13.377 20.3776 13.534 19.9933 13.8135 19.7097C14.093 19.4261 14.4721 19.2666 14.8677 19.266ZM0.078 25.2308V45.0688C0.078 47.3438 1.937 49.2028 4.20983 49.2028H6.123V25.2308H0.078ZM45.955 25.2308V49.2028H47.866C50.141 49.2028 52 47.3438 52 45.0688V25.2308H45.955ZM8.79017 28.4548V43.2965H22.087V28.4548H8.79017ZM37.4833 28.5003V36.6838L33.7827 38.8006L30.082 36.6838V28.5415C28.6033 29.2476 27.3546 30.3579 26.4805 31.744C25.6064 33.1301 25.1425 34.7353 25.1425 36.374C25.1425 38.0127 25.6064 39.6179 26.4805 41.004C27.3546 42.39 28.6033 43.5003 30.082 44.2065V49.4953H37.5722V44.2043C39.0577 43.4943 40.3106 42.3763 41.1847 40.981C42.0587 39.5857 42.5179 37.9706 42.5086 36.3241C42.4993 34.6777 42.0219 33.0678 41.1321 31.6825C40.2423 30.2972 38.9768 29.1935 37.4833 28.5003ZM8.79017 46.397V49.4953H25.961V46.397H8.79017Z" fill="#2A2B3A"/>
</svg>
