<svg width="62" height="38" viewBox="0 0 62 38" fill="none" xmlns="http://www.w3.org/2000/svg">
<path d="M53.4698 18.7701C53.4698 19.9171 52.886 20.1031 51.429 20.1031C49.8893 20.1031 49.6052 19.8448 49.4398 18.6719C49.135 15.6959 47.1252 13.1694 43.7539 12.8853C42.6741 12.7974 42.4157 12.3944 42.4157 11.0614C42.4157 9.82142 42.6069 9.23242 43.5679 9.23242C49.4192 9.25825 53.4698 13.9651 53.4698 18.7649V18.7701ZM61.9948 18.7701C61.9948 9.84209 55.955 0.402588 41.9998 0.402588H14.26C13.6968 0.402588 13.3455 0.686754 13.3455 1.20342C13.3455 1.485 13.5573 1.74334 13.7485 1.87509C14.7508 2.67592 16.2543 3.56459 18.2177 4.55142C20.1371 5.51242 21.6354 6.14275 23.1337 6.75242C23.7692 7.01075 24.0017 7.28975 24.0017 7.64109C24.0017 8.13192 23.6504 8.43675 22.9684 8.43675H0.961C0.304833 8.43675 0 8.86042 0 9.27892C0 9.63025 0.113667 9.93509 0.4185 10.2399C2.201 12.1154 5.05817 14.3629 9.20183 16.9669C12.989 19.3178 16.9002 21.4619 20.9121 23.4046C21.5217 23.6888 21.7077 24.0143 21.7077 24.3656C21.6871 24.7634 21.3822 25.0889 20.6744 25.0889H10.5917C10.0337 25.0889 9.703 25.3989 9.703 25.8639C9.703 26.1222 9.90967 26.4477 10.1938 26.7061C12.4878 28.7934 16.1639 31.0667 21.0619 33.1489C27.5977 35.9389 34.2214 37.5948 41.6769 37.5948C55.7948 37.5948 62 27.0368 62 18.7649L61.9948 18.7701ZM43.5679 31.9554C36.3501 31.9554 30.3102 26.0758 30.3102 18.7443C30.3102 11.5264 36.3294 5.72425 43.5679 5.72425C50.964 5.72425 56.7713 11.5109 56.7713 18.7443C56.7809 20.4812 56.446 22.2028 55.786 23.8095C55.1259 25.4161 54.1538 26.876 52.926 28.1046C51.6981 29.3332 50.2388 30.3061 48.6325 30.9671C47.0263 31.6281 45.3049 31.964 43.5679 31.9554Z" fill="#2A2B3A"/>
</svg>
