<svg width="50" height="50" viewBox="0 0 50 50" fill="none" xmlns="http://www.w3.org/2000/svg">
<g clip-path="url(#clip0_428_38)">
<path d="M47.864 5.24404L37.7842 0.369323C37.2141 0.091685 36.5721 -0.000436269 35.9475 0.105773C35.3229 0.211983 34.7468 0.511243 34.2992 0.961923L14.9925 18.6707L6.57856 12.2567C6.19963 11.9655 5.73104 11.8173 5.2545 11.8378C4.77795 11.8583 4.3237 12.0464 3.97095 12.3691L1.27606 14.838C1.06542 15.0294 0.896913 15.2629 0.781346 15.5235C0.66578 15.7842 0.605708 16.0663 0.604987 16.3517C0.604266 16.6371 0.662912 16.9195 0.77716 17.1807C0.891408 17.442 1.05874 17.6763 1.2684 17.8687L8.56605 24.5628L1.2684 31.2569C1.05874 31.4493 0.891408 31.6837 0.77716 31.9449C0.662912 32.2062 0.604266 32.4886 0.604987 32.774C0.605708 33.0594 0.66578 33.3414 0.781346 33.6021C0.896913 33.8628 1.06542 34.0963 1.27606 34.2876L3.97095 36.7565C4.3237 37.0793 4.77795 37.2673 5.2545 37.2879C5.73104 37.3084 6.19963 37.1601 6.57856 36.8689L14.9925 30.4473L34.3084 48.1637C34.7544 48.6144 35.3292 48.9137 35.9527 49.0199C36.5761 49.1262 37.217 49.034 37.7858 48.7563L47.8748 43.8739C48.3943 43.623 48.8325 43.2294 49.1387 42.7385C49.4449 42.2476 49.6066 41.6796 49.605 41.1002V8.01464C49.605 6.8356 48.9267 5.75352 47.8671 5.24096L47.864 5.24404ZM37.3601 35.7484L22.702 24.5644L37.3601 13.3804V35.7484Z" fill="#2A2B3A"/>
</g>
<defs>
<clipPath id="clip0_428_38">
<rect width="50" height="50" fill="white"/>
</clipPath>
</defs>
</svg>
