<svg width="53" height="53" viewBox="0 0 53 53" fill="none" xmlns="http://www.w3.org/2000/svg">
<g clip-path="url(#clip0_428_40)">
<path d="M41.6623 24.9352C41.6623 22.1792 40.671 20.2714 39.8228 18.7862L39.5628 18.3637C38.5325 16.7062 37.6323 15.2502 37.6323 13.5537C37.6323 11.5062 39.1858 9.59519 41.3763 9.59519C41.4413 9.59519 41.503 9.6017 41.5648 9.60495L41.6655 9.61469C37.5581 5.8419 32.1822 3.75142 26.605 3.7582C22.9087 3.7563 19.27 4.67412 16.0168 6.42895C12.7635 8.18378 9.9981 10.7205 7.96956 13.8104C8.48956 13.8267 8.98681 13.8397 9.40606 13.8397C11.7363 13.8397 15.347 13.5569 15.347 13.5569C16.5495 13.4854 16.6925 15.2502 15.49 15.3932C15.49 15.3932 14.2843 15.5362 12.9388 15.6044L21.0638 39.7649L25.9388 25.1204L22.4613 15.6012C21.262 15.5297 20.1245 15.3899 20.1245 15.3899C18.922 15.3184 19.065 13.4789 20.2643 13.5504C20.2643 13.5504 23.9498 13.8332 26.1403 13.8332C28.4738 13.8332 32.0878 13.5504 32.0878 13.5504C33.2903 13.4789 33.43 15.2469 32.2275 15.3899C32.2275 15.3899 31.0185 15.5297 29.6763 15.6012L37.7363 39.5764L39.9593 32.1437L40.1348 31.5814C41.0123 28.7864 41.659 26.7227 41.659 24.9319L41.6623 24.9352ZM4.30031 26.0629C4.30009 30.2514 5.47902 34.3552 7.70218 37.9049C9.92535 41.4547 13.1029 44.3068 16.8713 46.1349L6.22756 16.9824C4.95301 19.8398 4.29627 22.9342 4.30031 26.0629Z" fill="#2A2B3A"/>
<path d="M20.3032 47.4575L26.9982 28.0128L33.8525 46.7978C33.898 46.905 33.95 47.0058 34.0117 47.1033C29.5932 48.6599 24.7963 48.7839 20.3032 47.4575ZM46.1732 15.3605C46.2707 16.0723 46.326 16.8328 46.326 17.655C46.326 19.917 45.9035 22.4618 44.6295 25.6435L37.8175 45.3385C42.8443 42.4179 46.5315 37.6494 48.093 32.0493C49.6545 26.4493 48.9668 20.4608 46.1765 15.3605H46.1732Z" fill="#2A2B3A"/>
<path fill-rule="evenodd" clip-rule="evenodd" d="M0.605225 26.0629C0.605225 11.7271 12.2695 0.0628662 26.6052 0.0628662C40.9377 0.0628662 52.6052 11.7271 52.6052 26.0629C52.6052 40.3986 40.9377 52.0629 26.6052 52.0629C12.2695 52.0629 0.605225 40.3986 0.605225 26.0629ZM1.79797 26.0629C1.79797 39.7421 12.926 50.8701 26.6052 50.8701C40.2812 50.8701 51.4092 39.7421 51.4092 26.0629C51.4092 12.3804 40.2812 1.25562 26.6052 1.25562C12.9227 1.25562 1.79797 12.3804 1.79797 26.0629Z" fill="#2A2B3A"/>
</g>
<defs>
<clipPath id="clip0_428_40">
<rect width="53" height="53" fill="white"/>
</clipPath>
</defs>
</svg>
